<svg xmlns="http://www.w3.org/2000/svg" xmlns:xlink="http://www.w3.org/1999/xlink" viewBox="0 0 420.34 665.54"><defs><radialGradient id="radial-gradient" cx="210.17" cy="626.32" r="151.18" gradientTransform="translate(0 563.69) scale(1 0.1)" gradientUnits="userSpaceOnUse"><stop offset="0.15" stop-color="#948469" stop-opacity="0.6"/><stop offset="0.95" stop-color="#fff" stop-opacity="0"/></radialGradient></defs><title>bulbРесурс 1</title><g id="Слой_2" data-name="Слой 2"><g id="object"><ellipse cx="210.17" cy="626.32" rx="210.17" ry="39.23" fill="url(#radial-gradient)"/><path d="M288,484.41a14.09,14.09,0,0,1-14.09,14.1H138.22a14.1,14.1,0,0,1-14.1-14.1h0a14.1,14.1,0,0,1,14.1-14.1h135.7A14.1,14.1,0,0,1,288,484.41Z" fill="#58595b"/><path d="M288,520.75a14.09,14.09,0,0,1-14.09,14.1H138.22a14.1,14.1,0,0,1-14.1-14.1h0a14.1,14.1,0,0,1,14.1-14.1h135.7A14.09,14.09,0,0,1,288,520.75Z" fill="#58595b"/><path d="M288,557.09a14.1,14.1,0,0,1-14.09,14.1H138.22a14.1,14.1,0,0,1-14.1-14.1h0a14.1,14.1,0,0,1,14.1-14.1h135.7A14.09,14.09,0,0,1,288,557.09Z" fill="#58595b"/><path d="M154.72,579.74v8.12a36.46,36.46,0,0,0,36.46,36.46H221a36.46,36.46,0,0,0,36.46-36.46v-8.12Z" fill="#58595b"/><path d="M328.16,304V290.13h-11a44.74,44.74,0,0,0-2.48-9.32l9.5-5.48-6.94-12-9.49,5.49a45.47,45.47,0,0,0-6.83-6.83l5.49-9.49-12-6.94L288.91,255a44,44,0,0,0-9.32-2.48v-11H265.71v11A44,44,0,0,0,256.4,255l-5.49-9.51-12,6.94,5.47,9.49a45.81,45.81,0,0,0-6.81,6.83l-9.5-5.48-6.94,12,9.51,5.49a44.74,44.74,0,0,0-2.48,9.32h-11V304h11a44.74,44.74,0,0,0,2.48,9.32l-9.51,5.48,6.94,12,9.5-5.49a45.81,45.81,0,0,0,6.81,6.83l-5.47,9.49,12,6.94,5.49-9.51a44.65,44.65,0,0,0,9.31,2.48v11h13.88v-11a44.57,44.57,0,0,0,9.32-2.48l5.49,9.51,12-6.94-5.49-9.49a45.47,45.47,0,0,0,6.83-6.83l9.49,5.48,6.94-12-9.5-5.48a44.74,44.74,0,0,0,2.48-9.32ZM272.65,328.3a31.23,31.23,0,1,1,31.22-31.23A31.24,31.24,0,0,1,272.65,328.3Z" fill="#a2cc39"/><path d="M203.15,449v-3.78h-3a12.67,12.67,0,0,0-.68-2.54l2.59-1.49-1.89-3.27-2.59,1.49a12.51,12.51,0,0,0-1.85-1.86l1.49-2.58L194,433l-1.5,2.59a11.79,11.79,0,0,0-2.53-.68v-3h-3.78v3a12.4,12.4,0,0,0-2.53.68l-1.5-2.59-3.27,1.89,1.49,2.58a12.58,12.58,0,0,0-1.86,1.86l-2.58-1.49L174,441.15l2.59,1.49a12.67,12.67,0,0,0-.68,2.54h-3V449h3a12.4,12.4,0,0,0,.68,2.53L174,453l1.89,3.27,2.58-1.49a12.51,12.51,0,0,0,1.86,1.85l-1.49,2.59,3.27,1.89,1.5-2.59a11.78,11.78,0,0,0,2.53.67v3h3.78v-3a11.78,11.78,0,0,0,2.53-.67l1.5,2.59,3.27-1.89-1.49-2.59a12.45,12.45,0,0,0,1.85-1.85l2.59,1.49,1.89-3.27-2.59-1.5a12.4,12.4,0,0,0,.68-2.53ZM188,455.57a8.5,8.5,0,1,1,8.5-8.5A8.51,8.51,0,0,1,188,455.57Z" fill="#ec2f24"/><path d="M354.91,328.12v-3.4h-2.69a11.61,11.61,0,0,0-.61-2.28l2.33-1.34-1.7-3-2.33,1.35a10.15,10.15,0,0,0-1.67-1.67l1.34-2.33-2.94-1.7-1.34,2.33a11,11,0,0,0-2.28-.61v-2.69h-3.4v2.69a11,11,0,0,0-2.28.61L336,313.8l-2.95,1.7,1.34,2.33a11,11,0,0,0-1.67,1.67l-2.32-1.35-1.7,2.94,2.33,1.35a11,11,0,0,0-.61,2.28h-2.69v3.4h2.69a11,11,0,0,0,.61,2.28l-2.33,1.34,1.7,2.95,2.32-1.34a12,12,0,0,0,1.67,1.67l-1.34,2.32L336,339l1.34-2.33a11,11,0,0,0,2.28.61V340H343v-2.69a11,11,0,0,0,2.28-.61l1.34,2.33,2.94-1.7L348.24,335a10.61,10.61,0,0,0,1.67-1.68l2.33,1.35,1.7-2.95-2.33-1.34a11.61,11.61,0,0,0,.61-2.28Zm-13.59,5.94a7.64,7.64,0,1,1,7.64-7.64A7.65,7.65,0,0,1,341.32,334.06Z" fill="#1f61ac"/><path d="M239.8,354.28v-3.4h-2.69a10.36,10.36,0,0,0-.61-2.28l2.33-1.34-1.7-2.95-2.32,1.35a11,11,0,0,0-1.67-1.67l1.34-2.33-2.94-1.7-1.35,2.33a10.79,10.79,0,0,0-2.28-.61V339h-3.4v2.69a11,11,0,0,0-2.28.61L220.89,340l-2.94,1.7,1.34,2.33a10.15,10.15,0,0,0-1.67,1.67l-2.33-1.35-1.7,2.94,2.33,1.35a10.93,10.93,0,0,0-.6,2.28h-2.7v3.4h2.7a10.93,10.93,0,0,0,.6,2.28l-2.33,1.34,1.7,3,2.33-1.34a11,11,0,0,0,1.67,1.67L218,363.5l2.94,1.7,1.34-2.33a11,11,0,0,0,2.28.61v2.69h3.4v-2.69a10.79,10.79,0,0,0,2.28-.61l1.35,2.33,2.94-1.7-1.34-2.32a11.53,11.53,0,0,0,1.67-1.68l2.32,1.35,1.7-3-2.33-1.34a10.36,10.36,0,0,0,.61-2.28Zm-13.59,6a7.65,7.65,0,1,1,7.65-7.65A7.65,7.65,0,0,1,226.21,360.23Z" fill="#ec2f24"/><path d="M348.25,68.45V61.31H342.6a23.3,23.3,0,0,0-1.27-4.79l4.88-2.82-3.57-6.18-4.87,2.82a23.36,23.36,0,0,0-3.52-3.51L337.08,42l-6.18-3.57-2.83,4.89A22.54,22.54,0,0,0,323.28,42V36.34h-7.14V42a23.23,23.23,0,0,0-4.78,1.28l-2.83-4.89L302.35,42l2.82,4.88a23.3,23.3,0,0,0-3.51,3.51l-4.88-2.82-3.57,6.17,4.89,2.83a22.68,22.68,0,0,0-1.27,4.79h-5.66v7.14h5.66a22.68,22.68,0,0,0,1.27,4.79l-4.89,2.82,3.57,6.18,4.88-2.82a23.3,23.3,0,0,0,3.51,3.51l-2.82,4.88,6.18,3.57,2.83-4.89a23.23,23.23,0,0,0,4.78,1.28v5.65h7.14V87.77a23.15,23.15,0,0,0,4.79-1.28l2.83,4.89,6.18-3.57-2.83-4.88a23.36,23.36,0,0,0,3.52-3.51l4.87,2.82,3.57-6.18-4.88-2.82a23.3,23.3,0,0,0,1.27-4.79ZM319.71,80.93a16.06,16.06,0,1,1,16.06-16.05A16.06,16.06,0,0,1,319.71,80.93Z" fill="#5f4399"/><path d="M28.2,128.25a50.33,50.33,0,0,0-4.06,6.23l-9.6-3.11-1.8-.58-.59,1.8L7.59,146.66,7,148.47l1.81.58,9.59,3.1a50.34,50.34,0,0,0-.38,7.44l-9.87,2.1-1.85.39.39,1.86L9.78,178.4l.39,1.85,1.86-.39,9.87-2.11a49.83,49.83,0,0,0,3.4,6.62l-7.51,6.78-1.41,1.27,1.27,1.41,9.9,11,1.27,1.41L30.23,205l7.51-6.78A49.23,49.23,0,0,0,44,202.22l-3.12,9.61-.58,1.8,1.8.59,14.07,4.56,1.8.58.59-1.8L61.64,208a50,50,0,0,0,7.43.38l2.11,9.87.39,1.85,1.86-.39,14.45-3.08,1.86-.4-.4-1.85-2.1-9.89a48.49,48.49,0,0,0,6.61-3.39l6.78,7.52L101.9,210l1.41-1.27,11-9.9,1.41-1.27-1.27-1.41-6.78-7.52a49.26,49.26,0,0,0,4.06-6.23l9.61,3.12,1.8.58.59-1.8,4.56-14.07.58-1.8-1.8-.59-9.6-3.11a48.56,48.56,0,0,0,.39-7.43l9.86-2.11,1.85-.39-.39-1.86-3.09-14.46-.39-1.85-1.86.39L114,139.13a50.3,50.3,0,0,0-3.39-6.61l7.51-6.78,1.41-1.27-1.27-1.41-9.9-11L107,110.67l-1.41,1.27-7.51,6.78a49.31,49.31,0,0,0-6.24-4.06L95,105.05l.58-1.8-1.8-.59L79.71,98.1l-1.81-.59-.58,1.81-3.1,9.59a51.16,51.16,0,0,0-7.44-.38l-2.1-9.85-.4-1.86-1.85.4L48,100.3l-1.86.39.4,1.86,2.1,9.87A49.11,49.11,0,0,0,42,115.81l-6.77-7.51L34,106.89l-1.41,1.27-11,9.91-1.41,1.27,1.27,1.41Zm26.29,15.29A20.07,20.07,0,1,1,53,171.88,20.09,20.09,0,0,1,54.49,143.54Z" fill="#1f61ac"/><path d="M287.3,104.46a17.67,17.67,0,0,0-1.42,2.18l-3.37-1.09-.64-.2-.2.63-1.6,4.94-.21.63.64.21,3.36,1.09a17.56,17.56,0,0,0-.13,2.61l-3.46.73-.66.14.14.65,1.09,5.08.14.65.65-.14,3.46-.74a17.69,17.69,0,0,0,1.2,2.33l-2.64,2.37-.5.45.45.49,3.47,3.86.45.49.49-.44,2.64-2.38a16.74,16.74,0,0,0,2.19,1.42l-1.09,3.37-.21.64.63.2,4.94,1.6.63.21.21-.63,1.09-3.37a17.56,17.56,0,0,0,2.61.13l.74,3.47.14.65.65-.14,5.07-1.08.66-.14-.14-.65-.74-3.47a18.8,18.8,0,0,0,2.32-1.19l2.38,2.64.44.49.5-.44,3.85-3.48.5-.45-.45-.49-2.38-2.64a18.28,18.28,0,0,0,1.43-2.19l3.37,1.1.63.2.21-.63,1.6-4.94.21-.63-.64-.21-3.37-1.09a17.49,17.49,0,0,0,.14-2.61l3.46-.74.65-.14-.14-.65-1.08-5.07-.14-.66-.65.14-3.47.74a17,17,0,0,0-1.19-2.32l2.64-2.38.5-.44-.45-.5-3.48-3.85-.44-.49-.5.44-2.63,2.38a18.66,18.66,0,0,0-2.19-1.43l1.09-3.37.21-.63-.64-.21-4.94-1.6-.63-.2-.2.63-1.09,3.37a17.56,17.56,0,0,0-2.62-.14l-.73-3.46-.14-.65-.65.14-5.08,1.08-.65.14.14.65.74,3.47a17,17,0,0,0-2.32,1.19l-2.38-2.64-.45-.49-.49.44L285,100.88l-.49.45.45.49Zm9.23,5.36a7,7,0,1,1-.51,10A7,7,0,0,1,296.53,109.82Z" fill="#1f61ac"/><path d="M122,8.64a13.31,13.31,0,0,0-1.12,1.72l-2.64-.86-.5-.16-.16.5-1.25,3.86-.16.5.49.16,2.64.85a14.15,14.15,0,0,0-.1,2.05l-2.72.58-.51.1.11.52.85,4,.11.51.51-.11,2.71-.58a13.61,13.61,0,0,0,.94,1.82l-2.07,1.87-.38.35.34.38,2.73,3,.35.39.38-.35,2.07-1.86A13.9,13.9,0,0,0,126.32,29l-.85,2.64-.17.5.5.16,3.87,1.26.49.16.17-.5.85-2.64a14,14,0,0,0,2,.11l.58,2.71.11.51.51-.11,4-.84.51-.11-.11-.51-.58-2.72a14.18,14.18,0,0,0,1.82-.93l1.86,2.06.35.39.39-.35,3-2.72.39-.35-.35-.39-1.87-2.06A13.69,13.69,0,0,0,145,23.53l2.64.86.5.16.16-.5,1.25-3.86.16-.5-.49-.16-2.64-.86a13.87,13.87,0,0,0,.1-2l2.71-.58.51-.11-.1-.51-.85-4-.11-.52-.51.11-2.72.58a12.89,12.89,0,0,0-.93-1.81L146.7,8l.39-.35-.35-.38L144,4.2l-.35-.39-.38.35L141.21,6A14.35,14.35,0,0,0,139.5,4.9l.85-2.64.16-.49L140,1.61,136.15.35l-.5-.16-.16.5-.85,2.64a13.94,13.94,0,0,0-2-.11L132,.51,131.91,0l-.51.11-4,.85-.51.1.11.52.58,2.71a13.58,13.58,0,0,0-1.82.93l-1.86-2.06-.35-.39-.39.35-3,2.72-.39.35.35.39Zm7.23,4.21a5.52,5.52,0,1,1-.41,7.79A5.52,5.52,0,0,1,129.22,12.85Z" fill="#ae3862"/><path d="M120,385.37a20,20,0,0,0-1.64,2.51l-3.88-1.25-.73-.24-.23.73-1.84,5.68-.24.73.73.24L116,395a20.17,20.17,0,0,0-.15,3l-4,.85-.75.16.16.75,1.25,5.83.16.75.75-.16,4-.85A18.8,18.8,0,0,0,118.8,408l-3,2.73-.57.52.52.56,4,4.44.52.57.57-.51,3-2.74a20.32,20.32,0,0,0,2.51,1.63l-1.25,3.88-.24.73.73.24,5.68,1.84.73.24.23-.73,1.26-3.87a21.54,21.54,0,0,0,3,.15l.85,4,.16.74.75-.16,5.84-1.24.75-.16-.16-.75-.85-4a19.78,19.78,0,0,0,2.67-1.37l2.73,3,.52.56.57-.51,4.43-4,.57-.51-.51-.57-2.74-3a20.51,20.51,0,0,0,1.64-2.52l3.88,1.26.73.24.23-.73,1.84-5.68.24-.73-.73-.24L156,400.1a20.1,20.1,0,0,0,.15-3l4-.86.75-.16-.16-.74-1.24-5.84-.16-.75-.75.16-4,.85a19.24,19.24,0,0,0-1.37-2.67l3-2.74.57-.51-.52-.57-4-4.43-.51-.57-.57.51-3,2.74a19,19,0,0,0-2.52-1.64l1.26-3.88.24-.73-.73-.24-5.68-1.84L140,373l-.24.73-1.25,3.87a20,20,0,0,0-3-.16l-.84-4-.16-.75-.75.16L128,374.08l-.75.16.16.75.85,4a20.4,20.4,0,0,0-2.67,1.37l-2.73-3-.52-.57-.57.52-4.43,4-.57.52.51.57Zm10.61,6.17A8.11,8.11,0,1,1,130,403,8.12,8.12,0,0,1,130.58,391.54Z" fill="#a2cc39"/><path d="M59,298a20.11,20.11,0,0,0-1.64,2.52l-3.88-1.26-.72-.23-.24.73-1.84,5.68-.24.73.73.23L55,307.65a20.3,20.3,0,0,0-.15,3l-4,.84-.76.16.16.75,1.25,5.84.16.75.75-.16,4-.85a18.18,18.18,0,0,0,1.37,2.67l-3,2.74-.57.51.51.57,4,4.44.51.56.57-.51,3-2.73a20.85,20.85,0,0,0,2.52,1.63l-1.26,3.88-.24.73.73.24,5.68,1.84.73.23.24-.73,1.25-3.87a20.11,20.11,0,0,0,3,.16l.85,4,.16.75.75-.16,5.84-1.24.75-.16-.16-.75-.85-4a21,21,0,0,0,2.67-1.37l2.74,3,.51.57.57-.51,4.43-4,.57-.51-.51-.57-2.74-3a20.4,20.4,0,0,0,1.64-2.51l3.88,1.26.73.23.23-.73L99.36,315l.23-.72-.73-.24L95,312.73a20,20,0,0,0,.16-3l4-.85.74-.16-.16-.75-1.24-5.84-.16-.75-.75.16-4,.85a19.13,19.13,0,0,0-1.37-2.66l3-2.74.57-.51-.52-.57-4-4.44-.52-.57-.57.52-3,2.73a21.29,21.29,0,0,0-2.52-1.64l1.26-3.88.24-.72-.73-.24-5.68-1.84-.73-.24-.24.73-1.25,3.87a21.45,21.45,0,0,0-3-.15l-.84-4-.16-.75-.75.16-5.84,1.25-.75.15.16.75.85,4A19.81,19.81,0,0,0,64.52,293l-2.73-3-.52-.57-.56.51-4.44,4-.57.51.51.57Zm10.62,6.18a8.1,8.1,0,1,1-.6,11.44A8.1,8.1,0,0,1,69.57,304.18Z" fill="#faaf17"/><path d="M91.63,232.77A20,20,0,0,0,90,235.28L86.11,234l-.73-.24-.23.73-1.84,5.68-.24.73.73.23,3.87,1.26a20.17,20.17,0,0,0-.15,3l-4,.85-.75.16.16.75L84.19,253l.16.75.75-.16,4-.85a18.8,18.8,0,0,0,1.37,2.68l-3,2.73-.57.52.52.56,4,4.44.51.57.57-.52,3-2.73A20.85,20.85,0,0,0,98,262.63l-1.26,3.88-.24.73.73.24,5.68,1.84.73.24.23-.73,1.26-3.87a21.54,21.54,0,0,0,3,.15l.85,4,.16.74.75-.16,5.84-1.24.75-.16-.16-.75-.85-4a21,21,0,0,0,2.67-1.37l2.73,3,.52.57.57-.51,4.43-4,.57-.51-.51-.57-2.74-3a19.67,19.67,0,0,0,1.64-2.51l3.88,1.26.73.24.23-.73,1.85-5.68.23-.73-.73-.24-3.87-1.26a19.9,19.9,0,0,0,.15-3l4-.86.74-.16-.16-.74-1.24-5.84-.16-.75-.75.16-4,.85a19.24,19.24,0,0,0-1.37-2.67l3-2.74.57-.51-.52-.57-4-4.43-.52-.57-.57.51-3,2.74a19,19,0,0,0-2.52-1.64l1.26-3.88.24-.73-.73-.24-5.68-1.84-.73-.24-.24.73L110.21,225a20,20,0,0,0-3-.16l-.84-4-.16-.75-.75.16-5.84,1.25-.75.16.16.75.85,4a20.4,20.4,0,0,0-2.67,1.37l-2.73-3-.52-.57-.57.51-4.43,4-.57.52.51.56Zm10.61,6.17a8.11,8.11,0,1,1-.59,11.44A8.12,8.12,0,0,1,102.24,238.94Z" fill="#ec2f24"/><path d="M251.4,212.28a13.07,13.07,0,0,0-1.05,1.61l-2.48-.8-.46-.16-.15.47L246.08,217l-.15.47.46.15,2.48.8a12.36,12.36,0,0,0-.1,1.92l-2.55.54-.47.1.1.48.79,3.73.11.48.48-.1,2.54-.54a13.17,13.17,0,0,0,.88,1.71l-1.94,1.74-.36.33.33.37,2.55,2.83.33.36.36-.32,1.94-1.75a11.94,11.94,0,0,0,1.61,1l-.8,2.48-.16.47.47.15,3.63,1.18.47.15.15-.47.8-2.47a13.73,13.73,0,0,0,1.92.1l.54,2.54.1.48.48-.1,3.73-.8.48-.1-.1-.48-.54-2.55a12.49,12.49,0,0,0,1.71-.87L270.1,233l.32.36.37-.33,2.83-2.55.37-.33-.33-.36-1.75-1.95a13.76,13.76,0,0,0,1-1.6l2.48.8.46.15.15-.46,1.18-3.63.15-.47-.46-.15-2.48-.81a13.51,13.51,0,0,0,.1-1.91l2.54-.55.48-.1-.1-.48-.8-3.73-.1-.48-.48.1-2.55.55a11.46,11.46,0,0,0-.87-1.71l1.94-1.75.36-.33-.33-.36-2.55-2.84-.33-.36-.36.33-1.94,1.75a12.31,12.31,0,0,0-1.61-1l.8-2.48.15-.47-.46-.15-3.63-1.17-.47-.16-.15.47-.8,2.48a12.29,12.29,0,0,0-1.92-.1l-.55-2.55-.1-.48-.48.11-3.73.79-.48.1.11.48.54,2.55a12.56,12.56,0,0,0-1.71.88l-1.75-1.94-.33-.36-.36.32-2.83,2.56-.37.33.33.36Zm6.79,3.95a5.18,5.18,0,1,1-.38,7.31A5.17,5.17,0,0,1,258.19,216.23Z" fill="#f37e20"/><path d="M239.8,221.33V205H222.63A40.57,40.57,0,0,0,217,191.14l12.26-12.27-11.57-11.56-12.08,12.07a40.63,40.63,0,0,0-14.84-6.29V155.91H174.38v17.18a40.67,40.67,0,0,0-14.36,6l-11.75-11.75-11.56,11.56,11.75,11.76a40.42,40.42,0,0,0-6,14.35H125.32v16.36H142.5a40.53,40.53,0,0,0,6.29,14.84l-12.08,12.08,11.57,11.57,12.26-12.27a40.62,40.62,0,0,0,13.85,5.66V270.4h16.35V253.22a40.73,40.73,0,0,0,14.36-6l12.56,12.57,11.57-11.57-12.56-12.57a40.84,40.84,0,0,0,6-14.36Zm-57.24,16.36a24.54,24.54,0,1,1,24.53-24.53A24.59,24.59,0,0,1,182.56,237.69Z" fill="#faaf17"/><path d="M217.14,327.85V311.5H200a40.37,40.37,0,0,0-5.66-13.84l12.26-12.26L195,273.83,182.92,285.9a40.75,40.75,0,0,0-14.85-6.29V262.44H151.72v17.17a41,41,0,0,0-14.37,6L125.6,273.83,114,285.39l11.75,11.76a40.6,40.6,0,0,0-6,14.35H102.65v16.36h17.18a40.63,40.63,0,0,0,6.29,14.84L114,354.78l11.57,11.57,12.26-12.26a40.68,40.68,0,0,0,13.85,5.65v17.18h16.35V359.74a40.65,40.65,0,0,0,14.36-6L195,366.35l11.57-11.57L194,342.21a40.65,40.65,0,0,0,6-14.36Zm-57.25,16.36a24.54,24.54,0,1,1,24.53-24.53A24.57,24.57,0,0,1,159.89,344.21Z" fill="#f37e20"/><path d="M386.37,109.53v-7.48h-7.86a18.53,18.53,0,0,0-2.59-6.34l5.61-5.61-5.29-5.29-5.53,5.53a18.43,18.43,0,0,0-6.79-2.88V79.6h-7.48v7.86a18.65,18.65,0,0,0-6.57,2.73l-5.37-5.38-5.29,5.29,5.37,5.38a18.65,18.65,0,0,0-2.73,6.57H334v7.48h7.86a18.49,18.49,0,0,0,2.87,6.79l-5.52,5.52,5.29,5.3,5.61-5.61a18.68,18.68,0,0,0,6.33,2.59V132h7.48v-7.85a18.65,18.65,0,0,0,6.57-2.73l5.75,5.75,5.29-5.3-5.75-5.75a18.49,18.49,0,0,0,2.73-6.56ZM360.18,117a11.23,11.23,0,1,1,11.22-11.22A11.24,11.24,0,0,1,360.18,117Z" fill="#faaf17"/><path d="M128.5,67.47h1.05V53H120.1a24.62,24.62,0,0,0-2-4.87L124,42.21l.75-.75-.75-.75L115.3,32l-.75-.75-.75.75-6,5.95a25,25,0,0,0-4.6-1.91V26.71H88.79V36a25.51,25.51,0,0,0-4.37,1.78L78.59,32l-.75-.75-.75.75-8.72,8.72-.75.75.75.75,5.7,5.7a25.15,25.15,0,0,0-2,4.75h-9.2V67.11h9.1a25.09,25.09,0,0,0,2.13,5.11l-5.7,5.7-.75.75.75.74,8.72,8.73.75.75.75-.75,5.83-5.83a24.84,24.84,0,0,0,4.73,1.89v9.22H103.6V84a25.56,25.56,0,0,0,4.25-1.8l6,6,.75.75.75-.75L124,79.41l.75-.74-.75-.75L118.09,72A24.31,24.31,0,0,0,120,67.46h8.5ZM111,60.06a15,15,0,1,1-15-15A15,15,0,0,1,111,60.06Z" fill="#a2cc39"/><path d="M272,183h.62v-8.44h-5.53a13.89,13.89,0,0,0-1.17-2.85l3.47-3.47.43-.43-.43-.44-5.1-5.1-.44-.43-.43.43L260,165.75a14.69,14.69,0,0,0-2.69-1.12v-5.44h-8.44v5.44a14.65,14.65,0,0,0-2.56,1.05l-3.41-3.41-.43-.43-.44.43-5.09,5.1-.44.44.44.43,3.33,3.33a13.86,13.86,0,0,0-1.19,2.78h-5.38v8.44H239a13.93,13.93,0,0,0,1.25,3l-3.33,3.33-.44.44.44.44,5.09,5.09.44.44.43-.44,3.41-3.4a14.31,14.31,0,0,0,2.76,1.1v5.39h8.44v-5.51A14.29,14.29,0,0,0,260,191.6l3.48,3.47.43.44.44-.44,5.1-5.09.43-.44-.43-.44L266,185.64a15.27,15.27,0,0,0,1.12-2.64Zm-10.22-4.33a8.76,8.76,0,1,1-8.75-8.75A8.77,8.77,0,0,1,261.81,178.67Z" fill="#ae3862"/><path d="M307,28h.62V19.53h-5.52a14.77,14.77,0,0,0-1.18-2.85l3.47-3.46.43-.44-.43-.43-5.1-5.1-.44-.44-.43.44-3.48,3.47a14.65,14.65,0,0,0-2.69-1.11V4.16H283.8V9.61a15.43,15.43,0,0,0-2.56,1l-3.4-3.4-.44-.44-.44.44-5.09,5.1-.44.43.44.44,3.33,3.33A13.94,13.94,0,0,0,274,19.33h-5.38v8.44H274a14.37,14.37,0,0,0,1.25,3l-3.33,3.33-.44.44.44.43,5.09,5.1.44.44.44-.44,3.4-3.4a14.31,14.31,0,0,0,2.76,1.1v5.39h8.45V37.63a16.32,16.32,0,0,0,2.48-1.05l3.48,3.47.43.44.44-.44,5.1-5.1.43-.43-.43-.44-3.47-3.46A15,15,0,0,0,302,28Zm-10.22-4.32A8.75,8.75,0,1,1,288,14.9,8.76,8.76,0,0,1,296.77,23.65Z" fill="#f37e20"/><path d="M287.66,149.66h.46v-6.27H284a11.13,11.13,0,0,0-.87-2.12l2.57-2.57.32-.32-.32-.33-3.78-3.78-.33-.33-.32.33-2.58,2.58a11.25,11.25,0,0,0-2-.83V132h-6.27V136a11.28,11.28,0,0,0-1.9.77L266,134.27l-.33-.33-.32.33-3.79,3.78-.32.33.32.32,2.48,2.47a10.47,10.47,0,0,0-.88,2.07h-4v6.27h3.95a11,11,0,0,0,.93,2.21l-2.48,2.48-.32.32.32.32,3.79,3.79.32.32.33-.32,2.53-2.53a10.7,10.7,0,0,0,2,.82v4h6.27v-4.09a10.68,10.68,0,0,0,1.85-.78l2.58,2.58.32.32.33-.32,3.78-3.79.32-.32-.32-.32-2.57-2.58a9.91,9.91,0,0,0,.82-2Zm-7.59-3.21a6.5,6.5,0,1,1-6.5-6.5A6.51,6.51,0,0,1,280.07,146.45Z" fill="#a2cc39"/><path d="M30.65,227.45H31v-4.94H27.77a8.36,8.36,0,0,0-.68-1.67l2-2,.25-.25-.25-.26-3-3-.26-.26-.25.26-2,2A8.25,8.25,0,0,0,22,216.7v-3.19h-5v3.19a9.15,9.15,0,0,0-1.49.61l-2-2-.25-.26-.26.26-3,3-.26.26.26.25L12,220.76a9,9,0,0,0-.7,1.63H8.18v4.94H11.3a8.1,8.1,0,0,0,.73,1.75L10.08,231l-.26.26.26.25,3,3,.26.25.25-.25,2-2a8.35,8.35,0,0,0,1.61.65v3.15h4.95v-3.22a8.44,8.44,0,0,0,1.45-.62l2,2,.25.25.26-.25,3-3,.25-.25-.25-.26-2-2a8.46,8.46,0,0,0,.65-1.55Zm-6-2.53a5.13,5.13,0,1,1-5.12-5.12A5.13,5.13,0,0,1,24.66,224.92Z" fill="#f37e20"/><path d="M239.36,453.05h.44V447h-4a10.63,10.63,0,0,0-.85-2.06l2.5-2.5.31-.32-.31-.31-3.68-3.68-.32-.32-.31.32-2.51,2.51a10,10,0,0,0-2-.81v-3.93h-6.1v3.93a11.27,11.27,0,0,0-1.84.75l-2.46-2.45-.32-.32-.31.32L214,441.76l-.32.31.32.32,2.4,2.4a10.45,10.45,0,0,0-.85,2h-3.89v6.1h3.84a10.64,10.64,0,0,0,.9,2.15l-2.4,2.41-.32.31.32.32,3.68,3.68.31.31.32-.31,2.46-2.46a10.06,10.06,0,0,0,2,.79V464h6.1v-4a10.91,10.91,0,0,0,1.8-.76l2.51,2.51.31.31.32-.31,3.68-3.68.31-.32-.31-.31L235,455a10.49,10.49,0,0,0,.8-1.9ZM232,449.92a6.32,6.32,0,1,1-6.31-6.32A6.32,6.32,0,0,1,232,449.92Z" fill="#1f61ac"/><path d="M239.68,404.66h1V390.79h-9.08a23.54,23.54,0,0,0-1.93-4.68l5.7-5.69.71-.72-.71-.72L227,370.61l-.72-.72-.71.72-5.72,5.71a24.4,24.4,0,0,0-4.42-1.84v-9H201.57v9a23.57,23.57,0,0,0-4.2,1.71l-5.6-5.59-.72-.72-.72.72L182,379l-.72.72.72.72,5.47,5.47a23.81,23.81,0,0,0-2,4.56h-8.83v13.88h8.73a24.43,24.43,0,0,0,2.05,4.9L182,414.7l-.72.72.72.72,8.37,8.37.72.72.72-.72,5.6-5.59a24.15,24.15,0,0,0,4.54,1.81v8.85h13.87v-9.06a23.2,23.2,0,0,0,4.08-1.72l5.72,5.71.71.72.72-.72,8.38-8.38.71-.71-.71-.72-5.7-5.69a23.32,23.32,0,0,0,1.83-4.35Zm-16.79-7.1a14.39,14.39,0,1,1-14.39-14.38A14.4,14.4,0,0,1,222.89,397.56Z" fill="#ae3862"/><path d="M266.62,432.15h.5v-6.9H262.6a11.88,11.88,0,0,0-1-2.34l2.84-2.83.35-.36-.35-.35-4.17-4.17-.36-.36-.36.36L256.75,418a12,12,0,0,0-2.2-.91v-4.46h-6.91v4.46a11.89,11.89,0,0,0-2.09.85l-2.79-2.78-.36-.36-.35.36-4.17,4.17-.36.35.36.36,2.72,2.73a11.66,11.66,0,0,0-1,2.27h-4.4V432h4.35a12.36,12.36,0,0,0,1,2.44l-2.72,2.72-.36.36.36.36,4.17,4.16.35.36.36-.36,2.79-2.78a11.33,11.33,0,0,0,2.26.9v4.41h6.9v-4.51a11.44,11.44,0,0,0,2-.86l2.84,2.84.36.36.36-.36,4.17-4.17.35-.35-.35-.36-2.84-2.83a11.74,11.74,0,0,0,.91-2.17Zm-8.37-3.53a7.16,7.16,0,1,1-7.16-7.16A7.17,7.17,0,0,1,258.25,428.62Z" fill="#5f4399"/><path d="M168.33,453.68h.54v-7.34h-4.8a12.61,12.61,0,0,0-1-2.47l3-3,.38-.38-.38-.38-4.43-4.43-.38-.38-.38.38-3,3a13.17,13.17,0,0,0-2.33-1V433h-7.34v4.74a12.59,12.59,0,0,0-2.22.9l-3-3-.38-.38-.38.38-4.42,4.43-.38.38.38.38,2.89,2.89a12.76,12.76,0,0,0-1,2.41H135v7.34h4.62a12.23,12.23,0,0,0,1.08,2.59L137.82,459l-.38.38.38.38,4.42,4.43.38.38.38-.38,3-3a12.79,12.79,0,0,0,2.4,1v4.68h7.34v-4.79a12.27,12.27,0,0,0,2.15-.91l3,3,.38.38.38-.38,4.43-4.43.38-.38-.38-.38-3-3a12.79,12.79,0,0,0,1-2.29Zm-8.88-3.76a7.6,7.6,0,1,1-7.6-7.6A7.61,7.61,0,0,1,159.45,449.92Z" fill="#5f4399"/><path d="M376.16,293.57l.72,0,0-.72.5-8.38.05-.72-.72,0-5.71-.34a17.08,17.08,0,0,0-1.17-3.4l4.27-3.79.54-.48-.47-.53-5.58-6.29-.48-.54-.54.48-4.28,3.8a17.52,17.52,0,0,0-3.05-1.48l.33-5.62,0-.72-.71,0-8.39-.5-.72,0,0,.72-.33,5.61a17.14,17.14,0,0,0-3,1l-3.73-4.2-.47-.54-.54.48L336.39,273l-.54.47.48.54,3.64,4.11a16.49,16.49,0,0,0-1.58,3.14l-5.53-.33-.72,0,0,.72-.5,8.38-.05.72.72,0,5.47.32a16.7,16.7,0,0,0,1.24,3.56l-4.1,3.64-.54.48.48.54,5.57,6.28.48.54.54-.48,4.19-3.72a17,17,0,0,0,3.14,1.47l-.33,5.55-.05.72.72,0,8.39.5.72.05,0-.72.34-5.7a15.81,15.81,0,0,0,3-1l3.8,4.29.48.54.54-.48,6.28-5.58.54-.47-.48-.54-3.78-4.27a17,17,0,0,0,1.47-3l5.78.35Zm-11.59-5.74A10.2,10.2,0,1,1,355,277,10.21,10.21,0,0,1,364.57,287.83Z" fill="#ec2f24"/><path d="M278.66,89.52v-19h-15a61.69,61.69,0,0,0-3.39-12.73l13-7.5-9.48-16.43-13,7.49a62,62,0,0,0-9.34-9.33l7.51-13L232.52,9.59l-7.51,13a59.47,59.47,0,0,0-12.74-3.39v-15h-19v15a60.45,60.45,0,0,0-12.73,3.39l-7.5-13-16.43,9.49,7.48,13a62.22,62.22,0,0,0-9.31,9.33l-13-7.49-9.48,16.42,13,7.51A61.06,61.06,0,0,0,142,70.55h-15v19h15a61,61,0,0,0,3.39,12.74l-13,7.5,9.48,16.43,13-7.49a62.22,62.22,0,0,0,9.31,9.33l-7.48,13,16.43,9.49,7.5-13a60.45,60.45,0,0,0,12.73,3.39v15h19v-15A60.06,60.06,0,0,0,225,137.49l7.51,13L249,141l-7.5-13a62,62,0,0,0,9.33-9.34l13,7.49,9.48-16.42-13-7.5a61.61,61.61,0,0,0,3.39-12.74Zm-75.88,33.2A42.68,42.68,0,1,1,245.46,80,42.69,42.69,0,0,1,202.78,122.72Z" fill="#ec2f24"/><path d="M202.78,101.71A21.67,21.67,0,1,1,224.46,80,21.68,21.68,0,0,1,202.78,101.71Z" fill="#ec2f24"/><path d="M411.49,201.63l-.92-16.19-12.82.72a52.19,52.19,0,0,0-3.51-10.7l10.72-7-8.89-13.56-10.71,7a53.65,53.65,0,0,0-8.42-7.51l5.77-11.44-14.48-7.3-5.78,11.45a51.89,51.89,0,0,0-11-2.27L350.68,132l-16.19.92.73,12.84a52.17,52.17,0,0,0-10.7,3.5l-7-10.73-13.56,8.9,7,10.71a53.46,53.46,0,0,0-7.5,8.41L292,160.76l-7.3,14.47L296.14,181a51.93,51.93,0,0,0-2.27,11l-12.84.73.91,16.19,12.85-.72a51.57,51.57,0,0,0,3.5,10.7l-10.73,7,8.89,13.57,10.72-7a53.14,53.14,0,0,0,8.41,7.51l-5.76,11.44,14.48,7.3,5.78-11.45a52.56,52.56,0,0,0,11,2.27l.72,12.84,16.2-.92-.73-12.83A52.11,52.11,0,0,0,368,245.17l7,10.73L388.61,247l-7-10.71a53.22,53.22,0,0,0,7.52-8.42l11.43,5.77,7.3-14.48-11.44-5.78a52.56,52.56,0,0,0,2.27-11l12.83-.73Zm-63.17,32a36.49,36.49,0,1,1,34.37-38.5A36.5,36.5,0,0,1,348.32,233.64Z" fill="#009a94"/><path d="M347.31,215.71a18.53,18.53,0,1,1,17.45-19.55A18.53,18.53,0,0,1,347.31,215.71Z" fill="#009a94"/><path d="M80.61,257.66l-.42-7.57-6,.34a24.12,24.12,0,0,0-1.65-5l5-3.29-4.16-6.35-5,3.29a24.43,24.43,0,0,0-3.94-3.52l2.71-5.35-6.78-3.41-2.7,5.36a24,24,0,0,0-5.16-1.07l-.35-6-7.57.43.34,6a24.82,24.82,0,0,0-5,1.64l-3.29-5-6.35,4.16,3.28,5a25.22,25.22,0,0,0-3.51,3.93l-5.35-2.7-3.41,6.77L26.67,248a23.89,23.89,0,0,0-1.07,5.16l-6,.34.43,7.57,6-.34a24.1,24.1,0,0,0,1.64,5l-5,3.29,4.16,6.35,5-3.29a24.32,24.32,0,0,0,3.94,3.51L33.06,281l6.78,3.42,2.7-5.36a24.5,24.5,0,0,0,5.16,1.07l.34,6,7.57-.43-.34-6a24.7,24.7,0,0,0,5-1.64l3.29,5,6.35-4.16-3.29-5a24.73,24.73,0,0,0,3.51-3.93l5.35,2.69,3.42-6.77-5.36-2.7A24.5,24.5,0,0,0,74.62,258l6-.34Zm-29.54,15a17.07,17.07,0,1,1,16.08-18A17.08,17.08,0,0,1,51.07,272.63Z" fill="#ae3862"/><path d="M50.6,264.24a8.66,8.66,0,1,1,8.16-9.14A8.67,8.67,0,0,1,50.6,264.24Z" fill="#ae3862"/><path d="M298,387.56l-.39-7-5.52.32a21.84,21.84,0,0,0-1.51-4.61l4.62-3-3.83-5.83-4.6,3a22.67,22.67,0,0,0-3.62-3.23l2.48-4.92-6.23-3.14-2.48,4.93a21.43,21.43,0,0,0-4.75-1l-.31-5.52-7,.39.31,5.52a22.54,22.54,0,0,0-4.6,1.51l-3-4.61-5.83,3.82,3,4.61a22.54,22.54,0,0,0-3.22,3.61L246.58,370l-3.13,6.23,4.92,2.48a22.13,22.13,0,0,0-1,4.75l-5.53.31.4,7,5.52-.31a22.14,22.14,0,0,0,1.51,4.6l-4.62,3,3.82,5.83,4.61-3a23.16,23.16,0,0,0,3.62,3.23L254.25,409l6.23,3.14L263,407.2a22.67,22.67,0,0,0,4.74,1l.32,5.52,7-.4-.31-5.51a22.75,22.75,0,0,0,4.6-1.51l3,4.61,5.84-3.82-3-4.61a23.16,23.16,0,0,0,3.23-3.62l4.91,2.48,3.14-6.22-4.92-2.49a22.67,22.67,0,0,0,1-4.74l5.51-.31Zm-27.15,13.76a15.69,15.69,0,1,1,14.77-16.55A15.71,15.71,0,0,1,270.81,401.32Z" fill="#f37e20"/><path d="M270.37,393.61a8,8,0,1,1,7.5-8.41A8,8,0,0,1,270.37,393.61Z" fill="#f37e20"/><path d="M315.25,360.89l-.17-2.88-2.27.13a9.39,9.39,0,0,0-.62-1.9l1.9-1.25-1.58-2.4-1.9,1.24a9.91,9.91,0,0,0-1.49-1.33l1-2-2.57-1.3-1,2a9.23,9.23,0,0,0-2-.41l-.13-2.28-2.88.17.13,2.27a9.63,9.63,0,0,0-1.9.63l-1.24-1.91-2.41,1.58,1.24,1.9a9.91,9.91,0,0,0-1.33,1.49l-2-1-1.29,2.57,2,1a9,9,0,0,0-.4,2l-2.28.12.16,2.88,2.28-.13a9.39,9.39,0,0,0,.62,1.9l-1.9,1.25,1.57,2.4,1.91-1.24a9.44,9.44,0,0,0,1.49,1.33l-1,2,2.57,1.3,1-2a9.1,9.1,0,0,0,2,.41l.13,2.27,2.87-.16-.13-2.28a8.63,8.63,0,0,0,1.9-.62l1.25,1.91,2.41-1.58-1.25-1.9a9.58,9.58,0,0,0,1.34-1.5l2,1,1.3-2.57-2-1a9.09,9.09,0,0,0,.4-2l2.28-.12ZM304,366.56a6.48,6.48,0,1,1,6.1-6.83A6.46,6.46,0,0,1,304,366.56Z" fill="#ec2f24"/><path d="M303.86,363.38a3.29,3.29,0,1,1,3.1-3.47A3.29,3.29,0,0,1,303.86,363.38Z" fill="#ec2f24"/><path d="M280,455l-.18-3.22-2.55.15a10,10,0,0,0-.7-2.13l2.14-1.4-1.77-2.7-2.13,1.4a10.86,10.86,0,0,0-1.68-1.5l1.15-2.27-2.88-1.46-1.15,2.28a10.11,10.11,0,0,0-2.2-.45l-.14-2.55-3.22.18.14,2.55a10.42,10.42,0,0,0-2.13.7l-1.39-2.13-2.7,1.77,1.39,2.13a10.78,10.78,0,0,0-1.49,1.67l-2.28-1.15-1.45,2.88,2.28,1.15a10.11,10.11,0,0,0-.45,2.2l-2.56.14.19,3.22,2.55-.14a10.23,10.23,0,0,0,.7,2.13l-2.14,1.4,1.77,2.7,2.13-1.4a10.79,10.79,0,0,0,1.68,1.49l-1.15,2.28,2.88,1.45,1.15-2.28a10.66,10.66,0,0,0,2.19.46l.15,2.55,3.22-.18-.15-2.56a10.92,10.92,0,0,0,2.14-.69l1.4,2.13,2.69-1.77-1.39-2.13a10.36,10.36,0,0,0,1.49-1.68l2.28,1.15,1.45-2.88L277,457.34a10,10,0,0,0,.45-2.19L280,455Zm-12.56,6.37a7.26,7.26,0,1,1,6.84-7.66A7.26,7.26,0,0,1,267.44,461.37Z" fill="#009a94"/><path d="M267.24,457.8a3.69,3.69,0,1,1,3.47-3.89A3.68,3.68,0,0,1,267.24,457.8Z" fill="#009a94"/><path d="M179.58,418.63l-.15-2.66-2.11.12a8.53,8.53,0,0,0-.57-1.75l1.76-1.16L177.05,411l-1.76,1.16a9,9,0,0,0-1.38-1.24l.94-1.88-2.37-1.19-.95,1.88a8.41,8.41,0,0,0-1.82-.38l-.12-2.11-2.65.16.12,2.1a8.65,8.65,0,0,0-1.76.58l-1.16-1.76-2.22,1.46,1.15,1.76a8.49,8.49,0,0,0-1.23,1.38l-1.88-.95-1.2,2.38,1.88.95a8.43,8.43,0,0,0-.37,1.81l-2.11.12.15,2.66,2.11-.12a8.83,8.83,0,0,0,.57,1.76l-1.76,1.15,1.46,2.23,1.76-1.15a9,9,0,0,0,1.38,1.23l-1,1.88,2.38,1.2,1-1.88a9.08,9.08,0,0,0,1.81.37l.12,2.11,2.66-.15-.12-2.11a8.07,8.07,0,0,0,1.76-.58l1.16,1.76,2.22-1.46-1.15-1.76a8.09,8.09,0,0,0,1.23-1.38l1.88.95,1.2-2.38-1.88-.95a8.31,8.31,0,0,0,.37-1.81l2.11-.12Zm-10.37,5.26a6,6,0,1,1,5.64-6.32A6,6,0,0,1,169.21,423.89Z" fill="#ec2f24"/><path d="M169,420.94a3,3,0,1,1,2.87-3.21A3,3,0,0,1,169,420.94Z" fill="#ec2f24"/><path d="M112.8,346.71l-.2-3.53-2.79.16A12.11,12.11,0,0,0,109,341l2.34-1.53-1.94-3L107.1,338a11.41,11.41,0,0,0-1.83-1.64l1.26-2.49-3.16-1.6-1.26,2.5a11.32,11.32,0,0,0-2.41-.49l-.16-2.8-3.53.2.16,2.8a11.55,11.55,0,0,0-2.33.76l-1.54-2.34-3,1.94,1.53,2.34a11.79,11.79,0,0,0-1.63,1.83l-2.5-1.25L85.15,341l2.5,1.26a11.34,11.34,0,0,0-.5,2.41l-2.8.16.2,3.53,2.8-.16a10.88,10.88,0,0,0,.77,2.34L85.77,352l2,3,2.33-1.53a11.42,11.42,0,0,0,1.84,1.63l-1.26,2.5,3.16,1.59,1.26-2.5a11.38,11.38,0,0,0,2.4.5l.16,2.8,3.53-.2L101,357a10.88,10.88,0,0,0,2.34-.77l1.54,2.34,3-1.93-1.53-2.34a11.48,11.48,0,0,0,1.64-1.84l2.49,1.26,1.6-3.16-2.5-1.26a11.25,11.25,0,0,0,.5-2.4l2.79-.16Zm-13.77,7a8,8,0,1,1,7.49-8.4A8,8,0,0,1,99,353.69Z" fill="#ec2f24"/><path d="M98.81,349.78a4,4,0,1,1,3.8-4.27A4.05,4.05,0,0,1,98.81,349.78Z" fill="#ec2f24"/></g></g></svg>