<svg xmlns="http://www.w3.org/2000/svg" viewBox="0 0 798.91 606.98"><title>contactWhithIconРесурс 2</title><g id="Слой_2" data-name="Слой 2"><g id="Слой_1-2" data-name="Слой 1"><path d="M307.56,467.28H548L667.48,607l-5-139.7h44.16c20.36,0,36.86-17.58,36.86-39.26V148.62c0-21.69-16.5-39.26-36.86-39.26H307.56c-20.35,0-36.85,17.57-36.85,39.26V428C270.71,449.7,287.21,467.28,307.56,467.28Z" fill="#e8721b"/><path d="M579.22,57.44v298c0,23.13-18.21,43.94-41.35,43.94H264.74l-32.66,34.83L128.93,546.9l4.3-112.4,1.36-35.09H84.4c-23.13,0-42.49-20.81-42.49-43.94v-298C41.91,34.31,61.27,17,84.4,17H537.92c21.05,0,38.22,14.87,41.14,35.13A35.08,35.08,0,0,1,579.22,57.44Z" fill="#f2f2f2"/><path d="M164.33,217.76l5,1.25a16.69,16.69,0,0,1-5.61,9.31,15.44,15.44,0,0,1-9.9,3.2,17.81,17.81,0,0,1-9.84-2.46,15.35,15.35,0,0,1-5.77-7.14,25.48,25.48,0,0,1-2-10,22,22,0,0,1,2.23-10.2,15.28,15.28,0,0,1,6.36-6.61,18.56,18.56,0,0,1,9.08-2.26,15.31,15.31,0,0,1,9.45,2.86,14.86,14.86,0,0,1,5.34,8l-4.88,1.15a11.59,11.59,0,0,0-3.78-6,10.09,10.09,0,0,0-6.23-1.87,12.1,12.1,0,0,0-7.22,2.07,10.91,10.91,0,0,0-4.07,5.56,22.44,22.44,0,0,0-1.18,7.19,22.84,22.84,0,0,0,1.4,8.34,10.34,10.34,0,0,0,4.32,5.32,12.1,12.1,0,0,0,6.36,1.76,10.65,10.65,0,0,0,7-2.4A12.23,12.23,0,0,0,164.33,217.76Z"/><path d="M173.88,212.65q0-9.32,5-14.6a17,17,0,0,1,12.92-5.27,18,18,0,0,1,9.35,2.48,16.21,16.21,0,0,1,6.35,6.91,22.49,22.49,0,0,1,2.18,10.05,22.12,22.12,0,0,1-2.3,10.19,15.69,15.69,0,0,1-6.51,6.8,18.62,18.62,0,0,1-9.09,2.31,17.7,17.7,0,0,1-9.45-2.55,16.42,16.42,0,0,1-6.31-7A21.15,21.15,0,0,1,173.88,212.65Zm5.11.08q0,6.77,3.64,10.66a12.71,12.71,0,0,0,18.34,0q3.61-3.93,3.61-11.16a19.16,19.16,0,0,0-1.54-8,11.91,11.91,0,0,0-4.52-5.29,12.29,12.29,0,0,0-6.68-1.88,12.68,12.68,0,0,0-9.06,3.62Q179,204.27,179,212.73Z"/><path d="M216,230.88V193.44h5.08l19.67,29.4v-29.4h4.75v37.44h-5.08l-19.67-29.42v29.42Z"/><path d="M263.37,230.88v-33H251v-4.42h29.67v4.42H268.33v33Z"/><path d="M277.8,230.88l14.38-37.44h5.34l15.32,37.44H307.2l-4.37-11.34H287.18l-4.12,11.34Zm10.81-15.37H301.3l-3.91-10.37q-1.78-4.72-2.66-7.76a46.84,46.84,0,0,1-2,7.15Z"/><path d="M343.51,217.76l5,1.25a16.69,16.69,0,0,1-5.61,9.31,15.41,15.41,0,0,1-9.89,3.2,17.82,17.82,0,0,1-9.85-2.46,15.35,15.35,0,0,1-5.77-7.14,25.48,25.48,0,0,1-2-10,21.91,21.91,0,0,1,2.24-10.2,15.2,15.2,0,0,1,6.35-6.61,18.56,18.56,0,0,1,9.08-2.26,15.31,15.31,0,0,1,9.45,2.86,14.75,14.75,0,0,1,5.34,8L343,204.86a11.59,11.59,0,0,0-3.78-6,10.09,10.09,0,0,0-6.23-1.87,12.07,12.07,0,0,0-7.21,2.07,10.92,10.92,0,0,0-4.08,5.56,22.43,22.43,0,0,0-1.17,7.19,22.84,22.84,0,0,0,1.39,8.34,10.36,10.36,0,0,0,4.33,5.32,12.1,12.1,0,0,0,6.36,1.76,10.68,10.68,0,0,0,7.05-2.4A12.28,12.28,0,0,0,343.51,217.76Z"/><path d="M364.1,230.88v-33H351.76v-4.42h29.68v4.42H369.05v33Z"/><path d="M400,230.88V193.44h7.45L416.28,220c.81,2.47,1.41,4.32,1.78,5.55.43-1.37,1.09-3.37,2-6l9-26.05h6.67v37.44h-4.78V199.55L420,230.88h-4.47L404.73,199v31.87Z"/><path d="M443.78,230.88V193.44h27.07v4.42H448.74v11.47h20.71v4.39H448.74v12.75h23v4.41Z"/><path d="M507.82,36C482.49,36,462,52.07,462,71.89c0,10.93,6.25,20.72,16.11,27.31,0,.1-.05.21-.07.31l-1.69,12.33c-.12.86.45,1.3,1.26,1l16.73-6.62a58.22,58.22,0,0,0,13.52,1.58c25.32,0,45.85-16.07,45.85-35.88S533.14,36,507.82,36Z" fill="#34495e"/><path d="M523.12,320.41l-.7-.72-.11-.1a53.81,53.81,0,0,0-74.74-1.12l-.83.8-.43.42a53.83,53.83,0,1,0,76.81.72Zm-30.34,89.35a52.7,52.7,0,0,1-5.93.62c-.83,0-1.65.06-2.48.06s-1.66,0-2.49-.06a52.71,52.71,0,0,1-50.2-52.07v-1.13a52.54,52.54,0,0,1,15.87-37.09l.83-.8a52.38,52.38,0,0,1,33.5-14.17c.83,0,1.65-.06,2.49-.06s1.65,0,2.48.06a52.4,52.4,0,0,1,34.63,15.26l.81.83a52.44,52.44,0,0,1,14.76,36c0,.19,0,.38,0,.57s0,.37,0,.56A52.75,52.75,0,0,1,492.78,409.76Z" fill="#34495e"/><path d="M484.37,414a56.25,56.25,0,0,1-39.78-96l.45-.44q.43-.43.87-.84A56.24,56.24,0,0,1,524,317.85l.12.12.74.75h0A56.26,56.26,0,0,1,484.37,414Zm0-106.51c-.8,0-1.6,0-2.37.06a51,51,0,0,0-5.66.58A50,50,0,0,0,450,321.07l-.79.76a50,50,0,0,0-15.14,35.38v1.08a50.12,50.12,0,0,0,42.23,49.07A50.71,50.71,0,0,0,482,408c1.55.07,3.19.07,4.73,0a50.71,50.71,0,0,0,5.66-.59h0a50.13,50.13,0,0,0,42.23-49.08V357.2a50.1,50.1,0,0,0-14.08-34.31l-.78-.78a49.9,49.9,0,0,0-27.37-14,50.77,50.77,0,0,0-5.65-.58Q485.57,307.49,484.37,307.49Z" fill="#34495e"/><path d="M524,319.54l-.72-.73-.13-.13-.88-.83-.86.84c-.29.28-.55.54-.81.78a52.31,52.31,0,0,1-9.84,7.24c-.35.2-.67.38-1,.54a50.68,50.68,0,0,1-15.57,5.37l-1.09.18a51.23,51.23,0,0,1-7.65.57,52.06,52.06,0,0,1-9.83-.94l-1.09-.23a50.9,50.9,0,0,1-15.19-6l-1-.58a52.15,52.15,0,0,1-9.17-7.25l-.78-.8-.85-.9-.91.85-.86.81-.88.87.86.9.72.74.11.11a55.89,55.89,0,0,0,10,7.88l1,.61a54.42,54.42,0,0,0,16.27,6.31l1.14.23a55.66,55.66,0,0,0,10.42,1,56.38,56.38,0,0,0,8.13-.59l1.15-.18a54.76,54.76,0,0,0,16.64-5.68l1-.57a55,55,0,0,0,10.69-7.86c.28-.26.57-.53.86-.82l.88-.87Z" fill="#34495e"/><path d="M524,394.19l-.85-.81a54.58,54.58,0,0,0-10.7-7.86c-.32-.19-.66-.37-1-.57a54.22,54.22,0,0,0-16.64-5.68c-.33-.06-.7-.12-1.15-.18a55.6,55.6,0,0,0-18.54.38c-.35.06-.72.14-1.15.23A54.26,54.26,0,0,0,457.68,386l-1,.61a55.94,55.94,0,0,0-10,7.89l-.11.11c-.25.25-.49.49-.72.74l-.86.89.88.87.86.82.91.84.85-.9.78-.79a51.24,51.24,0,0,1,9.17-7.25l1-.59a51.16,51.16,0,0,1,15.19-6l1.09-.22a51.13,51.13,0,0,1,17.49-.37l1.09.17a50.73,50.73,0,0,1,15.56,5.38c.31.16.63.33,1,.54a51.94,51.94,0,0,1,9.84,7.23l.81.78.86.85.88-.84.13-.12L524,396l.85-.89Z" fill="#34495e"/><path d="M504.76,319.16c-5.39-10.63-12.63-16.48-20.39-16.48s-15,5.85-20.4,16.48c-5.23,10.33-8.12,24-8.12,38.59S458.74,386,464,396.34c5.39,10.62,12.63,16.48,20.4,16.48s15-5.86,20.39-16.48c5.23-10.34,8.12-24,8.12-38.59S510,329.49,504.76,319.16Zm-20.39,90c-6.68,0-13-5.27-17.83-14.83-4.91-9.78-7.62-22.77-7.62-36.6s2.71-26.83,7.62-36.6c4.82-9.57,11.15-14.84,17.83-14.84s13,5.27,17.82,14.84c4.91,9.77,7.62,22.77,7.62,36.6s-2.71,26.82-7.62,36.6C497.38,403.91,491.05,409.18,484.37,409.18Z" fill="#34495e"/><path d="M537.62,356.14H431.11a1.74,1.74,0,1,0,0,3.47H537.62a1.74,1.74,0,1,0,0-3.47Z" fill="#34495e"/><path d="M486.37,411.09V304.58a1.88,1.88,0,0,0-3.76,0V411.09a1.88,1.88,0,0,0,3.76,0Z" fill="#34495e"/><path d="M56.37,18.27l2,.45a3.65,3.65,0,0,1,1.1.45l3.36,2.06a3.74,3.74,0,0,1,.55.41L68.13,26c.11.1.2.2.3.31l6.15,7.15,5.65,7.08c.09.11.16.22.24.33l3.16,5.06a3.37,3.37,0,0,1,.45,1l.68,2.81a3.57,3.57,0,0,1,0,1.72h0a3.63,3.63,0,0,1-1.28,1.95l-3.54,2.75a1.33,1.33,0,0,1-.19.14l-5,3.34A3.61,3.61,0,0,0,73.28,62l-.62,3.39a3.61,3.61,0,0,0,0,1.5l1.74,7.06a4,4,0,0,0,.41,1l5.94,9.81L81,85l9.16,12.8c.09.11.17.22.27.33l10.07,11.07c.12.12.24.24.37.35l8.21,6.78a3.42,3.42,0,0,0,1,.59l5,1.91a3.6,3.6,0,0,0,2.29.1l3.22-.94a3.63,3.63,0,0,0,1.55-.93l4.33-4.39a4.19,4.19,0,0,1,.45-.39l.47-.34a3.59,3.59,0,0,1,3.08-.54l1.48.43a3.49,3.49,0,0,1,.82.35l4.52,2.63a3.53,3.53,0,0,1,.66.49l6.27,5.93a1.37,1.37,0,0,1,.17.17l6.07,6.57a3.92,3.92,0,0,1,.25.32l3.89,5.3a4.94,4.94,0,0,1,.3.49l1.46,2.87a3.61,3.61,0,0,1,.34,2.19l-.16,1a3.59,3.59,0,0,1-1.39,2.29l-6.27,4.68a3.85,3.85,0,0,1-.71.41l-9.59,4.39a25.94,25.94,0,0,1-4.8,1.45l-3.06.29a8.89,8.89,0,0,1-2.47,0,19,19,0,0,1-3.59-.81l-.26-.1-6.27-2.55c-.27-.1-1.85-.92-2.09-1.08l-12.56-8.4a4.23,4.23,0,0,1-.41-.33L88.17,126.66a2.72,2.72,0,0,1-.24-.24L73.67,110.51c-.08-.09-.15-.19-.22-.28L62.23,94.83a1.43,1.43,0,0,1-.16-.24L53.44,80.48a3.6,3.6,0,0,1-.26-.52l-5.56-13.6a4.91,4.91,0,0,1-.17-.5l-3-12a3.4,3.4,0,0,1-.07-.34L43,43.66a4.63,4.63,0,0,1,0-.74l.46-7.46a3.78,3.78,0,0,1,.2-1l1.69-4.68a3.76,3.76,0,0,1,.54-1l5-6.45a3.76,3.76,0,0,1,.76-.73l4.77-3.35Z" fill="#34495e" fill-rule="evenodd"/><path d="M64.7,10h2.22a1.9,1.9,0,0,1,.67.13l3.07,1.26a2,2,0,0,1,.59.4l3.33,3.4,4.68,4.7,4.57,4.56a1.69,1.69,0,0,1,.2.25l3.5,5.05,3.73,5.71,2.93,4.94a2,2,0,0,1,.2.53l.79,3.57a1.8,1.8,0,0,1-.36,1.5l-1.75,2.15a1.8,1.8,0,0,1-.68.51l-2.16.92a1.78,1.78,0,0,1-1.86-.3h0a1.86,1.86,0,0,1-.49-.69l-.82-2.1a1.63,1.63,0,0,0-.11-.23l-2-3.49-2.52-4.1a1.13,1.13,0,0,0-.1-.13l-3.09-4.11L76.15,30.3l-.06-.07-3-3.56L73,26.55l-3-3a.43.43,0,0,0-.1-.09l-3-2.54a.71.71,0,0,1-.13-.12L64.4,18.49a1.42,1.42,0,0,0-.49-.35l-2.6-1.28a1.61,1.61,0,0,1-.48-.34L60.29,16a1.78,1.78,0,0,1-.43-1.82l0-.1a1.83,1.83,0,0,1,.43-.69L62,11.69a1.76,1.76,0,0,1,.34-.27L64.7,10Z" fill="#34495e" fill-rule="evenodd"/><path d="M167.2,130.63l-.49-2.91a1.38,1.38,0,0,0-.08-.29l-1-2.78a1.81,1.81,0,0,0-.22-.44l-2.36-3.37-.12-.15-3.08-3.52-4.1-4.66a1.37,1.37,0,0,0-.17-.17l-4.53-4-.11-.09-5.5-4.08a2.17,2.17,0,0,0-.33-.19l-5.28-2.37a1.67,1.67,0,0,0-.54-.15l-3.72-.4a1.78,1.78,0,0,0-1.33.4l-2.19,1.83a1.72,1.72,0,0,0-.47.6l-.83,1.74a1.78,1.78,0,0,0,.35,2l.49.49a1.52,1.52,0,0,0,.35.26l2.37,1.42,3.64,2,.17.11,3.37,2.41a1.59,1.59,0,0,1,.24.2l3,3.1,3.14,3.08,3,3,.1.11,3,3.6.12.16,2,3,2,3a2,2,0,0,1,.21.44l.87,2.67a1.78,1.78,0,0,0,.21.44l0,0a1.78,1.78,0,0,0,2.26.61l1.41-.69a1.82,1.82,0,0,0,.58-.45l2.17-2.59a1.72,1.72,0,0,0,.33-.59l.92-2.83Z" fill="#34495e" fill-rule="evenodd"/><path d="M111.11,325.32c-4.58-18.16-17.65-30.2-18-29.58,0,0-15.39-13.89-36.82-13.74-21.43-.15-36.84,13.74-36.84,13.74-.39-.62-13.48,11.42-18.06,29.58s4,33.39,4,33.39a167.71,167.71,0,0,0,20.94,35.17c7.07,10.94,30,38.11,30,38.11s22.92-27.17,30-38.11a168,168,0,0,0,20.93-35.17S115.69,343.49,111.11,325.32ZM56.23,361.89a28.26,28.26,0,1,1,28.26-28.26A28.26,28.26,0,0,1,56.23,361.89Z" fill="#34495e"/><path d="M602.55,0l73.7,54.54a7.09,7.09,0,0,0,8.08,0L758.05.21Z" fill="#34495e"/><path d="M655.23,45,604.11,92.85a9.06,9.06,0,0,1-1.23-4.7v-82Z" fill="#34495e"/><path d="M700.9,48.42l51.64,48.23a10.75,10.75,0,0,1-4.83,1.09H612.89a10.77,10.77,0,0,1-4.45-.91L660,48.64l20.28,15Z" fill="#34495e"/><path d="M758.15,6.11v82A9.14,9.14,0,0,1,757,92.5l-51-47.75Z" fill="#34495e"/><path d="M731.67,356.48c37.14,0,67.24,23.56,67.24,52.62,0,16-9.17,30.4-23.62,40a3.78,3.78,0,0,1,.1.46l2.49,18.08c.17,1.26-.67,1.9-1.86,1.42l-24.53-9.71a84.59,84.59,0,0,1-19.82,2.32c-37.13,0-67.24-23.56-67.24-52.62S694.54,356.48,731.67,356.48Z" fill="#34495e"/></g></g></svg>