<svg xmlns="http://www.w3.org/2000/svg" xmlns:xlink="http://www.w3.org/1999/xlink" viewBox="0 0 471.48 447.86"><defs><linearGradient id="Degradado_sin_nombre_20" x1="233.13" y1="95.8" x2="233.13" y2="268.47" gradientUnits="userSpaceOnUse"><stop offset="0" stop-color="#fff"/><stop offset="0.13" stop-color="#fefefe" stop-opacity="0.85"/><stop offset="0.86" stop-color="#fafafa" stop-opacity="0"/></linearGradient></defs><title>i&amp;apos;amClearРесурс 3</title><g id="Слой_2" data-name="Слой 2"><g id="OBJECTS"><path d="M432.77,283.54H404.43a.91.91,0,0,0-.91.91V306a11.33,11.33,0,0,0,11.33,11.33h7.5A11.33,11.33,0,0,0,433.68,306V284.45A.91.91,0,0,0,432.77,283.54Z" fill="#fda226"/><path d="M429.37,313.58c6.4-3.61,17.38-14.27,15.55-21.77a6.3,6.3,0,0,0-3.55-4.37c-4.24-2-10.31.41-11,.69l2,4.21c1.46-.59,5-1.57,6.72-.78a1.6,1.6,0,0,1,.92,1.26c1.07,4.37-7.52,13.58-13.28,16.83Z" fill="#fda226"/><rect x="73.77" y="208.14" width="155.55" height="93.02" rx="3.35" ry="3.35" fill="#fafafa"/><path d="M169.14,313.28a13.4,13.4,0,0,1-.8-4.71v-7.41H135.89v7.41a13.4,13.4,0,0,1-.79,4.71c-.78,2.07-2.26,4.36-5,4.36h44.09C171.39,317.64,169.91,315.35,169.14,313.28Z" fill="#9b9b9b"/><rect y="317.6" width="471.48" height="10.01" rx="2.12" ry="2.12" fill="#b3b3b3"/><rect x="80.65" y="327.61" width="10.7" height="95.12" fill="#969696"/><rect x="373.37" y="327.61" width="10.7" height="95.12" fill="#969696"/><rect x="73.77" y="193.34" width="155.55" height="93.02" rx="3.35" ry="3.35"/><rect x="79.8" y="198.52" width="143.71" height="81.72" fill="#fafafa"/><rect x="237.06" y="208.14" width="155.55" height="93.02" rx="3.35" ry="3.35" fill="#fafafa"/><path d="M332.42,313.28a13.63,13.63,0,0,1-.79-4.71v-7.41H299.18v7.41a13.63,13.63,0,0,1-.79,4.71c-.78,2.07-2.26,4.36-5,4.36h44.09C334.68,317.64,333.2,315.35,332.42,313.28Z" fill="#9b9b9b"/><rect x="237.06" y="193.34" width="155.55" height="93.02" rx="3.35" ry="3.35"/><rect x="243.08" y="198.52" width="143.71" height="81.72" fill="#a2cae3"/><path d="M417.83,275.33a10.13,10.13,0,0,0,2.7-1.47,6.07,6.07,0,0,0,1.92-2.2,2.28,2.28,0,0,0-.15-2.32,6.11,6.11,0,0,0-2-1.72,17.47,17.47,0,0,0-2.66-1.23c-.43-.16-1-.37-1.57-.61s-1.09-.52-1.63-.82a18.8,18.8,0,0,1-5.59-4.91,21,21,0,0,1-3.48-6.92,18.58,18.58,0,0,1-.5-8.36,15.94,15.94,0,0,1,1.54-4.54,13.85,13.85,0,0,1,3.38-4.19,14.31,14.31,0,0,1,5-2.69,18.16,18.16,0,0,1,5.24-.81l1.79,0a7.47,7.47,0,1,1,.19,14.93,7.64,7.64,0,0,1-3.37-.76,5.18,5.18,0,0,0-1.93-.7,2.71,2.71,0,0,0-2.11,1.59,9.18,9.18,0,0,0-1.13,4.26,12.58,12.58,0,0,0,.83,5,13.17,13.17,0,0,0,2.87,4.5c.33.33.67.65,1,.95s.72.57,1.22.92a20.72,20.72,0,0,1,2.67,2.24,8.39,8.39,0,0,1,2.06,3.1,4.28,4.28,0,0,1,.19,2,4.45,4.45,0,0,1-.73,1.77,8.67,8.67,0,0,1-2.55,2.27,24.87,24.87,0,0,1-2.89,1.53.42.42,0,1,1-.35-.76h.05Z" fill="#fff"/><rect x="268.19" y="208.14" width="95.73" height="61.79" rx="6.29" ry="6.29" fill="#fafafa"/><rect x="302" y="233.37" width="16.47" height="3.57" fill="#a2cae3"/><rect x="325.09" y="249.44" width="28.05" height="3.57" fill="#a2cae3"/><rect x="339.12" y="257.48" width="14.03" height="3.57" fill="#a2cae3"/><rect x="302" y="249.44" width="16.08" height="3.57" fill="#a2cae3"/><rect x="302" y="241.41" width="23.09" height="3.57" fill="#a2cae3"/><rect x="302" y="257.48" width="9.46" height="3.57" fill="#a2cae3"/><polygon points="318.08 261.06 332.63 261.06 332.63 261.06 332.63 257.48 318.08 257.48 318.08 261.06" fill="#a2cae3"/><rect x="332.62" y="241.41" width="13.7" height="3.57" fill="#a2cae3"/><rect x="325.09" y="233.37" width="14.03" height="3.57" fill="#a2cae3"/><rect x="281.19" y="214.79" width="5.32" height="3.57" fill="#a2cae3"/><rect x="289.8" y="214.79" width="5.32" height="3.57" fill="#a2cae3"/><rect x="298.41" y="214.79" width="5.32" height="3.57" fill="#a2cae3"/><rect x="281.16" y="233.37" width="6.49" height="3.57" fill="#a2cae3"/><rect x="281.16" y="241.41" width="6.49" height="3.57" fill="#a2cae3"/><rect x="281.16" y="249.44" width="6.49" height="3.57" fill="#a2cae3"/><rect x="281.16" y="257.48" width="6.49" height="3.57" fill="#a2cae3"/><path d="M162,265.08a.41.41,0,0,0,.43-.09l2.74-2.74,2,3.89a.39.39,0,0,0,.35.22.41.41,0,0,0,.18-.05l1.65-.85a.39.39,0,0,0,.19-.23.44.44,0,0,0,0-.3l-1.89-3.63h3.57a.4.4,0,0,0,.37-.26.39.39,0,0,0-.1-.43l-9.08-8.33a.4.4,0,0,0-.66.3v12.13A.4.4,0,0,0,162,265.08Z"/><rect x="93.68" y="216.22" width="22.6" height="11.51" fill="#a2cae3"/><rect x="121.88" y="216.22" width="61.57" height="11.51" fill="#a2cae3"/><rect x="93.68" y="233.37" width="89.77" height="3.32" fill="#a2cae3"/><rect x="93.68" y="242.32" width="89.77" height="3.32" fill="#a2cae3"/><rect x="93.68" y="251.27" width="46.6" height="3.32" fill="#a2cae3"/><rect x="93.68" y="260.23" width="46.6" height="3.32" fill="#a2cae3"/><path d="M246.78,313.21l-82.21,5.26a12.82,12.82,0,0,1-13.62-12h0a12.83,12.83,0,0,1,12-13.63l82.21-5.26a7.82,7.82,0,0,1,8.31,7.31l.64,10A7.83,7.83,0,0,1,246.78,313.21Z" fill="#fbc39d"/><path d="M194.32,264.38,153.62,293a12.23,12.23,0,0,0-3.22,16.68h0A12.24,12.24,0,0,0,163.07,315c17.91-3.6,59.08-12,58.66-13.43-.32-1.06-4.89-17.36-8.57-30.51A12.25,12.25,0,0,0,194.32,264.38Z" fill="#1456a0"/><path d="M221.94,313.21l82.21,5.26a12.82,12.82,0,0,0,13.62-12h0a12.83,12.83,0,0,0-12-13.63l-82.21-5.26a7.82,7.82,0,0,0-8.31,7.31l-.64,10A7.84,7.84,0,0,0,221.94,313.21Z" fill="#fbc39d"/><path d="M274.4,264.38,315.1,293a12.23,12.23,0,0,1,3.22,16.68h0A12.24,12.24,0,0,1,305.65,315c-17.91-3.6-59.08-12-58.66-13.43.32-1.06,4.89-17.36,8.58-30.51A12.24,12.24,0,0,1,274.4,264.38Z" fill="#1456a0"/><path d="M202.5,211.91a8.3,8.3,0,1,0,8,8.29A8.14,8.14,0,0,0,202.5,211.91Z" fill="#f9ac7f"/><path d="M262.7,211.91a8.3,8.3,0,1,0,8,8.29A8.14,8.14,0,0,0,262.7,211.91Z" fill="#f9ac7f"/><path d="M230.1,264.53l-.06.06c.83.07,1.66.11,2.51.11h0a29.2,29.2,0,0,0,7.35-.94l0-.07c13-3.42,22.67-15.68,22.67-30.29V196.8c0-17.25-13.46-14.5-30.05-14.5h0c-16.6,0-30.05-2.75-30.05,14.5v36.6C202.5,249.8,214.65,263.23,230.1,264.53Z" fill="#fbc39d"/><path d="M256.54,221.37v9.88H245.88s-2.64-7.13-13.33-7.13-13.33,7.13-13.33,7.13H208.56v-9.88c0-3.89-3.65-5.18-6.06-5.6V233.4c0,16.4,12.15,29.83,27.6,31.13l-.06.06c.83.07,1.66.11,2.51.11s1.68,0,2.5-.11l-.05-.06c15.45-1.3,27.6-14.73,27.6-31.13V215.77C260.19,216.19,256.54,217.48,256.54,221.37Z" fill="#1d1d1b"/><path d="M254.66,170.27c-8.22-1.15-21-1.29-30.37,6.39-.24.2-.41.39-.6.58H216.3c-7.62,0-13.8,5.39-13.8,12v41.4a2.6,2.6,0,0,0,2.55-2.65V201.35s.47-8.47,8.15-8.47h37.59c8.18,0,9.18,7.42,9.27,8.37V228a2.6,2.6,0,0,0,2.55,2.65V190.06l.09-10.43A9.36,9.36,0,0,0,254.66,170.27Z" fill="#1d1d1b"/><rect x="204.1" y="188.39" width="58.05" height="50.29" fill="#1d1d1b"/><path d="M248.9,421.65H216.06c-22.93,0-41.52-20-41.52-44.78l10.38-89.73c3.57-23.92,25.71-39.28,48.17-39.28h0c22.7,0,45,15.74,48.26,40l9.07,89C290.42,401.6,271.83,421.65,248.9,421.65Z" fill="#565656"/><rect x="222.31" y="322.39" width="20.76" height="125.47" rx="2.69" ry="2.69" fill="#adadad"/><rect x="213.62" y="311.28" width="37.18" height="22.21" rx="5.22" ry="5.22"/><polygon points="196.94 95.8 121.98 267.13 344.28 268.48 273.39 95.8 196.94 95.8" opacity="0.36" fill="url(#Degradado_sin_nombre_20)"/><circle cx="235.34" cy="95.56" r="10.36" fill="#fff"/><path d="M235.34,57.33a38.23,38.23,0,0,0-38.23,38.23h76.45A38.23,38.23,0,0,0,235.34,57.33Z" fill="#fda226"/><rect x="233.72" width="3.24" height="57.33"/></g></g></svg>