<svg xmlns="http://www.w3.org/2000/svg" viewBox="0 0 474.38 473.02"><title>skillNewIconsРесурс 3</title><g id="Слой_2" data-name="Слой 2"><g id="Objects"><path d="M362.81,238.2a127.08,127.08,0,0,1-27.7,79.4q-3,3.78-6.28,7.31a127.56,127.56,0,0,1-187.33,0q-3.28-3.54-6.28-7.31a127.65,127.65,0,1,1,227.59-79.4Z" transform="translate(-0.82)" fill="#fff"/><rect x="161.5" y="194.26" width="147.07" height="87.86" rx="3.21" ry="3.21" fill="#fff"/><path d="M165.53,273.93a1.05,1.05,0,0,1-1.07-1V197.39a1.05,1.05,0,0,1,1.07-1H306.19a1.05,1.05,0,0,1,1.07,1v75.54a1.05,1.05,0,0,1-1.07,1Z" transform="translate(-0.82)" fill="#8ce1f2"/><rect x="163.64" y="209.93" width="142.79" height="50.99" fill="#6bc6cf"/><path d="M212.35,229.18a1.07,1.07,0,0,1-1.07,1.07H175.45a1.07,1.07,0,0,1-1.07-1.07h0a1.07,1.07,0,0,1,1.07-1.07h35.83a1.07,1.07,0,0,1,1.07,1.07Z" transform="translate(-0.82)" fill="#fff"/><path d="M290.37,229.18a1.07,1.07,0,0,1-1.07,1.07H259a1.07,1.07,0,0,1-1.07-1.07h0a1.06,1.06,0,0,1,1.06-1.07h30.3a1.07,1.07,0,0,1,1.07,1.07Z" transform="translate(-0.82)" fill="#fff"/><path d="M290.37,242.35a1.07,1.07,0,0,1-1.07,1.07H253.47a1.07,1.07,0,0,1-1.07-1.07h0a1.07,1.07,0,0,1,1.07-1.07H289.3a1.07,1.07,0,0,1,1.07,1.07Z" transform="translate(-0.82)" fill="#fff"/><path d="M220.2,233.55a1.07,1.07,0,0,1-1.07,1.07H175.45a1.07,1.07,0,0,1-1.07-1.07h0a1.07,1.07,0,0,1,1.07-1.07h43.68a1.07,1.07,0,0,1,1.07,1.07Z" transform="translate(-0.82)" fill="#fff"/><path d="M303,233.55a1.07,1.07,0,0,1-1.07,1.07H258.28a1.07,1.07,0,0,1-1.07-1.07h0a1.07,1.07,0,0,1,1.07-1.07H302a1.07,1.07,0,0,1,1.07,1.07Z" transform="translate(-0.82)" fill="#fff"/><path d="M303,237.8a1.07,1.07,0,0,1-1.07,1.07H258.28a1.07,1.07,0,0,1-1.07-1.07h0a1.07,1.07,0,0,1,1.07-1.07H302A1.07,1.07,0,0,1,303,237.8Z" transform="translate(-0.82)" fill="#fff"/><path d="M189.26,224.5a1.07,1.07,0,0,1-1.07,1.07H175.45a1.07,1.07,0,0,1-1.07-1.07h0a1.07,1.07,0,0,1,1.07-1.07h12.74a1.07,1.07,0,0,1,1.07,1.07Z" transform="translate(-0.82)" fill="#fff"/><path d="M201.92,224.5a1.07,1.07,0,0,1-1.07,1.07h-7a1.07,1.07,0,0,1-1.07-1.07h0a1.07,1.07,0,0,1,1.07-1.07h7a1.07,1.07,0,0,1,1.07,1.07Z" transform="translate(-0.82)" fill="#fff"/><path d="M303,224.5a1.07,1.07,0,0,1-1.07,1.07h-7a1.07,1.07,0,0,1-1.07-1.07h0a1.07,1.07,0,0,1,1.07-1.07h7A1.07,1.07,0,0,1,303,224.5Z" transform="translate(-0.82)" fill="#fff"/><path d="M303,228.84a1.07,1.07,0,0,1-1.07,1.07h-7a1.07,1.07,0,0,1-1.07-1.07h0a1.07,1.07,0,0,1,1.07-1.07h7a1.07,1.07,0,0,1,1.07,1.07Z" transform="translate(-0.82)" fill="#fff"/><path d="M303,242.35a1.07,1.07,0,0,1-1.07,1.07h-7a1.07,1.07,0,0,1-1.07-1.07h0a1.07,1.07,0,0,1,1.07-1.07h7a1.07,1.07,0,0,1,1.07,1.07Z" transform="translate(-0.82)" fill="#fff"/><path d="M290.62,224.5a1.07,1.07,0,0,1-1.07,1.07H282.5a1.07,1.07,0,0,1-1.06-1.07h0a1.07,1.07,0,0,1,1.06-1.07h7.05a1.07,1.07,0,0,1,1.07,1.07Z" transform="translate(-0.82)" fill="#fff"/><path d="M335.11,317.6q-3,3.78-6.28,7.31H141.5q-3.28-3.54-6.28-7.31Z" transform="translate(-0.82)" fill="#e0e8e8"/><path d="M115.46,101.6A50.82,50.82,0,1,1,64.64,50.78,50.82,50.82,0,0,1,115.46,101.6Z" transform="translate(-0.82)" fill="#fff"/><path d="M64.64,137.84A36.22,36.22,0,1,1,76.16,136,36.41,36.41,0,0,1,64.64,137.84Z" transform="translate(-0.82)" fill="#fff" stroke="#000" stroke-miterlimit="10" stroke-width="3"/><path d="M45.26,80H87.77l-3.86,43.65-17.44,4.93-17.33-4.94ZM59.5,99.7,59,94.2H79.39l.46-5.31H53.18l1.42,16.22H73.07L72.41,112l-5.89,1.63-6-1.64-.38-4.27H54.87l.67,8.44,11,2.94,10.89-2.92,1.5-16.51H59.5Z" transform="translate(-0.82)"/><path d="M475.2,287.67A33.71,33.71,0,1,1,441.49,254,33.72,33.72,0,0,1,475.2,287.67Z" transform="translate(-0.82)" fill="#fff"/><path d="M97.05,249.44A47.47,47.47,0,1,1,49.58,202,47.47,47.47,0,0,1,97.05,249.44Z" transform="translate(-0.82)" fill="#fff"/><path d="M428.83,86.82A50.82,50.82,0,1,1,378,36,50.82,50.82,0,0,1,428.83,86.82Z" transform="translate(-0.82)" fill="#fff"/><path d="M378,123.3a36.44,36.44,0,1,1,11.59-1.88A36.31,36.31,0,0,1,378,123.3Z" transform="translate(-0.82)" fill="#fff" stroke="#000" stroke-miterlimit="10" stroke-width="3"/><path d="M248.24,149.47a11.84,11.84,0,1,0-16.66,10.8v5h9.65v-5A11.84,11.84,0,0,0,248.24,149.47Z" transform="translate(-0.82)" fill="#fff"/><path d="M242.81,167.07a.76.76,0,0,1-.77.77H231a.76.76,0,0,1-.77-.77h0a.77.77,0,0,1,.77-.77H242a.77.77,0,0,1,.77.77Z" transform="translate(-0.82)" fill="#fff"/><path d="M242.81,169.53a.76.76,0,0,1-.77.77H231a.76.76,0,0,1-.77-.77h0a.77.77,0,0,1,.77-.77H242a.77.77,0,0,1,.77.77Z" transform="translate(-0.82)" fill="#fff"/><path d="M242.81,172.16a.77.77,0,0,1-.77.77H231a.77.77,0,0,1-.77-.77h0a.77.77,0,0,1,.77-.78H242a.77.77,0,0,1,.77.78Z" transform="translate(-0.82)" fill="#fff"/><path d="M237.3,133.83a.81.81,0,0,1-.8.81h0a.81.81,0,0,1-.8-.81v-5.22a.8.8,0,0,1,.8-.81h0a.8.8,0,0,1,.8.81Z" transform="translate(-0.82)" fill="#fff"/><path d="M226,137.87a.79.79,0,0,1,0,1.13h0a.8.8,0,0,1-1.14,0l-3.69-3.69a.81.81,0,0,1,0-1.14h0a.81.81,0,0,1,1.14,0Z" transform="translate(-0.82)" fill="#fff"/><path d="M220.78,148.75a.8.8,0,0,1,.8.8h0a.8.8,0,0,1-.8.81h-5.23a.8.8,0,0,1-.8-.81h0a.8.8,0,0,1,.8-.8Z" transform="translate(-0.82)" fill="#fff"/><path d="M224.81,160.1a.81.81,0,0,1,1.14,0h0a.8.8,0,0,1,0,1.14l-3.69,3.69a.8.8,0,0,1-1.14,0h0a.81.81,0,0,1,0-1.14Z" transform="translate(-0.82)" fill="#fff"/><path d="M247.05,161.24a.8.8,0,0,1,0-1.14h0a.81.81,0,0,1,1.14,0l3.69,3.69a.81.81,0,0,1,0,1.14h0a.8.8,0,0,1-1.14,0Z" transform="translate(-0.82)" fill="#fff"/><path d="M252.22,150.36a.8.8,0,0,1-.8-.81h0a.8.8,0,0,1,.8-.8h5.23a.8.8,0,0,1,.8.8h0a.8.8,0,0,1-.8.81Z" transform="translate(-0.82)" fill="#fff"/><path d="M248.19,139a.8.8,0,0,1-1.14,0h0a.79.79,0,0,1,0-1.13l3.69-3.7a.81.81,0,0,1,1.14,0h0a.81.81,0,0,1,0,1.14Z" transform="translate(-0.82)" fill="#fff"/><line x1="232.51" y1="147.43" x2="235.68" y2="150.72" fill="none" stroke="#8ce1f2" stroke-linecap="round" stroke-miterlimit="10"/><line x1="229.55" y1="149.55" x2="232.51" y2="147.43" fill="none" stroke="#8ce1f2" stroke-linecap="round" stroke-miterlimit="10"/><line x1="238.85" y1="147.43" x2="235.68" y2="150.72" fill="none" stroke="#8ce1f2" stroke-linecap="round" stroke-miterlimit="10"/><line x1="241.8" y1="149.55" x2="238.85" y2="147.43" fill="none" stroke="#8ce1f2" stroke-linecap="round" stroke-miterlimit="10"/><path d="M232.63,174.05a3.87,3.87,0,0,0,7.56,0Z" transform="translate(-0.82)" fill="#fff"/><path d="M404.25,406a50.82,50.82,0,1,1-50.81-50.82A50.84,50.84,0,0,1,404.25,406Z" transform="translate(-0.82)" fill="#fff"/><path d="M353.44,437.81a31.79,31.79,0,1,1,10.1-1.64A31.91,31.91,0,0,1,353.44,437.81Z" transform="translate(-0.82)" fill="none" stroke="#000" stroke-miterlimit="10" stroke-width="3"/><path d="M135.67,405.73a50.82,50.82,0,1,1-50.82-50.82A50.82,50.82,0,0,1,135.67,405.73Z" transform="translate(-0.82)" fill="#fff"/><path d="M84.85,451.54a45.77,45.77,0,1,1,14.56-2.36A45.58,45.58,0,0,1,84.85,451.54Z" transform="translate(-0.82)" fill="none" stroke="#000" stroke-miterlimit="10" stroke-width="3"/><path d="M300.75,310.39a7.62,7.62,0,0,1-7.6,7.21h-6.88c-2.91-5-6.09-10.32-9.25-15.24-6.51-10.18-12.93-18.75-16.7-20-9.95-3.24-10.84-35.13-11.59-36.24L248,245s25.63,4.24,29.55,8c2.3,2.21,12.81,29.5,21.1,51.63Z" transform="translate(-0.82)" fill="#ff7c01"/><path d="M245.88,245.8l-2.61-10.14L236,236.81l-7.24-1.15-2.6,10.14a20.84,20.84,0,0,0,9.51,2.67h.66A21,21,0,0,0,245.88,245.8Z" transform="translate(-0.82)" fill="#ebbb80"/><path d="M220.6,212.81s-1.89-1.83-3.15-.38-.63,10.57,2.33,10.95,2.71-1.48,2.71-1.48Z" transform="translate(-0.82)" fill="#fcc98a"/><path d="M251.46,212.05s1.89-1.83,3.15-.38.63,10.58-2.33,11-2.71-1.47-2.71-1.47Z" transform="translate(-0.82)" fill="#fcc98a"/><path d="M250.51,229.49c.89-5.3,5.43-22.64,4.47-29.51-1.09-7.78-7.73-12.43-17.77-12.43l-1.18,0-1.17,0c-10.05,0-16.69,4.65-17.78,12.43-1,6.87,3.65,22.88,4.54,28.18Z" transform="translate(-0.82)" fill="#3d2f22"/><path d="M252,200.4c-1.35-9.7-12.48-10-16-9.8-3.48-.16-14.6.1-15.95,9.8a80.51,80.51,0,0,0,1.51,28.23c.48,2.18,4.8,12.14,14.06,12.62v0h.76v0c9.26-.48,13.19-8.53,14.1-11.76C252.26,223.29,253.59,211.92,252,200.4Z" transform="translate(-0.82)" fill="#3d2f22"/><path d="M220.25,193s2.71-5.4,13.6-6.44c0,0-1.07-2.41-2.67-2.54,0,0,3.81-.56,4.43,2.69a4,4,0,0,1,2.5-1.78,2.16,2.16,0,0,0-.36,1.92s9.07-.36,13.55,5.59C254.2,196.25,220.25,193,220.25,193Z" transform="translate(-0.82)" fill="#3d2f22"/><path d="M300.77,310a2.75,2.75,0,0,1,0,.4,7.62,7.62,0,0,1-7.6,7.21H255.6a7.62,7.62,0,1,1,0-15.24h37.55a7.63,7.63,0,0,1,7.62,7.63Z" transform="translate(-0.82)" fill="#ff7c01"/><path d="M171.48,310.39a7.62,7.62,0,0,0,7.6,7.21H186c2.92-5,6.09-10.32,9.25-15.24,6.51-10.18,12.93-18.75,16.7-20,10-3.24,10.84-35.13,11.59-36.24l.76-1.12s-25.63,4.24-29.55,8c-2.3,2.21-12.81,29.5-21.1,51.63Z" transform="translate(-0.82)" fill="#ff7c01"/><path d="M171.46,310a2.75,2.75,0,0,0,0,.4,7.62,7.62,0,0,0,7.6,7.21h37.55a7.62,7.62,0,1,0,0-15.24H179.08a7.63,7.63,0,0,0-7.62,7.63Z" transform="translate(-0.82)" fill="#ff7c01"/><path d="M235.81,244.22v-.05l-.16,0-.17,0v.05c-4.16.64-41.5-3-37.29,32.82,4.42,37.67,10.86,70.63,10.86,70.63H260A448.2,448.2,0,0,0,274.54,277C278.75,241.19,240,244.86,235.81,244.22Z" transform="translate(-0.82)" fill="#ff7c01"/><path d="M226.48,244.25l-4.56,1s3.55,4.33,13.94,4.5,13.71-4.53,13.71-4.53l-4-.54Z" transform="translate(-0.82)" fill="#de6c01"/><path d="M226.48,244.25a29.63,29.63,0,0,0,19.1.4l-2.58-2.3Z" transform="translate(-0.82)" fill="#ebbb80"/><path d="M275.71,301.35v57.91a125.15,125.15,0,0,1-23.28,5.41,127.9,127.9,0,0,1-34.52,0,125.07,125.07,0,0,1-23.29-5.41V301.35c0-22.39,18.15-24.76,40.55-24.76C272.94,276.59,275.71,290.14,275.71,301.35Z" transform="translate(-0.82)" fill="#fff"/><path d="M252.43,322.73v41.94a127.9,127.9,0,0,1-34.52,0V322.73a17.26,17.26,0,0,1,34.52,0Z" transform="translate(-0.82)" fill="#e0e8e8"/><path d="M236.83,50.82A50.82,50.82,0,1,1,186,0,50.82,50.82,0,0,1,236.83,50.82Z" transform="translate(-0.82)" fill="#fff"/><path d="M186,87.3a36.44,36.44,0,1,1,11.59-1.88A36.31,36.31,0,0,1,186,87.3Z" transform="translate(-0.82)" fill="#fff" stroke="#000" stroke-miterlimit="10" stroke-width="3"/><path d="M439.05,210.44A32.47,32.47,0,1,1,406.58,178,32.47,32.47,0,0,1,439.05,210.44Z" transform="translate(-0.82)" fill="#fff"/><path d="M279.73,19.43V14.52a6.49,6.49,0,0,1-3.37-2,5,5,0,0,1-1.07-3.23,4.56,4.56,0,0,1,1.21-3.23,4.89,4.89,0,0,1,3.23-1.5V3.41h1.7V4.57a5,5,0,0,1,3,1.27,4.84,4.84,0,0,1,1.41,2.8l-3,.39a2.37,2.37,0,0,0-1.41-1.87v4.58a7.59,7.59,0,0,1,3.83,2,4.68,4.68,0,0,1,1,3.11A5.24,5.24,0,0,1,285,20.4a5.66,5.66,0,0,1-3.57,1.78v2.19h-1.7V22.24a5.46,5.46,0,0,1-3.29-1.51,6.19,6.19,0,0,1-1.62-3.58l3.06-.33a3.85,3.85,0,0,0,.7,1.62A3.41,3.41,0,0,0,279.73,19.43Zm0-12.31a2.18,2.18,0,0,0-1.1.8,2.07,2.07,0,0,0-.41,1.24,2,2,0,0,0,.37,1.15,2.59,2.59,0,0,0,1.14.87Zm1.7,12.47a2.36,2.36,0,0,0,1.43-.82,2.26,2.26,0,0,0,.55-1.52,2.07,2.07,0,0,0-.46-1.36,3,3,0,0,0-1.52-.87Z" transform="translate(-0.82)" fill="#fff"/><path d="M294.53,27h-2.26a22.49,22.49,0,0,1-2.73-5.63,18.21,18.21,0,0,1-.94-5.64,17.78,17.78,0,0,1,1.16-6.41,22.33,22.33,0,0,1,2.56-4.84h2.25a35.17,35.17,0,0,0-2.21,6,22.48,22.48,0,0,0-.25,9.21,26.62,26.62,0,0,0,1,3.84C293.36,24.38,293.84,25.53,294.53,27Z" transform="translate(-0.82)" fill="#fff"/><path d="M296.15,27c.65-1.39,1.1-2.46,1.37-3.2a23.29,23.29,0,0,0,.74-2.57c.22-1,.39-1.89.5-2.76a21.26,21.26,0,0,0,.17-2.67,22.48,22.48,0,0,0-.6-5.28,35,35,0,0,0-2.2-6h2.23a21.47,21.47,0,0,1,2.75,5.34,17.43,17.43,0,0,1,1,5.73,20,20,0,0,1-.77,5.25,22.12,22.12,0,0,1-2.9,6.2Z" transform="translate(-0.82)" fill="#fff"/><path d="M367.73,321.43v-4.91a6.49,6.49,0,0,1-3.37-2,5,5,0,0,1-1.07-3.23,4.56,4.56,0,0,1,1.21-3.23,4.89,4.89,0,0,1,3.23-1.5v-1.16h1.7v1.16a5,5,0,0,1,3,1.27,4.84,4.84,0,0,1,1.41,2.8l-3,.39a2.37,2.37,0,0,0-1.41-1.87v4.58a7.59,7.59,0,0,1,3.83,2,4.68,4.68,0,0,1,1,3.11A5.24,5.24,0,0,1,373,322.4a5.66,5.66,0,0,1-3.57,1.78v2.19h-1.7v-2.13a5.46,5.46,0,0,1-3.29-1.51,6.19,6.19,0,0,1-1.62-3.58l3.06-.33a3.85,3.85,0,0,0,.7,1.62A3.41,3.41,0,0,0,367.73,321.43Zm0-12.31a2.18,2.18,0,0,0-1.1.8,2.07,2.07,0,0,0-.41,1.24,2,2,0,0,0,.37,1.15,2.59,2.59,0,0,0,1.14.87Zm1.7,12.47a2.36,2.36,0,0,0,1.43-.82,2.26,2.26,0,0,0,.55-1.52,2.07,2.07,0,0,0-.46-1.36,3,3,0,0,0-1.52-.87Z" transform="translate(-0.82)" fill="#fff"/><path d="M382.53,329h-2.26a22.49,22.49,0,0,1-2.73-5.63,18.21,18.21,0,0,1-.94-5.64,17.78,17.78,0,0,1,1.16-6.41,22.33,22.33,0,0,1,2.56-4.84h2.25a35.17,35.17,0,0,0-2.21,6,22.48,22.48,0,0,0-.25,9.21,26.62,26.62,0,0,0,1,3.84C381.36,326.38,381.84,327.53,382.53,329Z" transform="translate(-0.82)" fill="#fff"/><path d="M384.15,329c.65-1.39,1.1-2.46,1.37-3.2a23.29,23.29,0,0,0,.74-2.57c.22-1,.39-1.89.5-2.76a21.26,21.26,0,0,0,.17-2.67,22.48,22.48,0,0,0-.6-5.28,35,35,0,0,0-2.2-6h2.23a21.47,21.47,0,0,1,2.75,5.34,17.43,17.43,0,0,1,1,5.73,20,20,0,0,1-.77,5.25,22.12,22.12,0,0,1-2.9,6.2Z" transform="translate(-0.82)" fill="#fff"/><path d="M5.73,453.43v-4.91a6.49,6.49,0,0,1-3.37-2,5,5,0,0,1-1.07-3.23,4.56,4.56,0,0,1,1.21-3.23,4.89,4.89,0,0,1,3.23-1.5v-1.16h1.7v1.16a5,5,0,0,1,3,1.27,4.84,4.84,0,0,1,1.41,2.8l-3,.39a2.37,2.37,0,0,0-1.41-1.87v4.58a7.59,7.59,0,0,1,3.83,2,4.68,4.68,0,0,1,1,3.11A5.24,5.24,0,0,1,11,454.4a5.66,5.66,0,0,1-3.57,1.78v2.19H5.73v-2.13a5.46,5.46,0,0,1-3.29-1.51,6.19,6.19,0,0,1-1.62-3.58l3.06-.33a3.85,3.85,0,0,0,.7,1.62A3.41,3.41,0,0,0,5.73,453.43Zm0-12.31a2.18,2.18,0,0,0-1.1.8,2.07,2.07,0,0,0-.41,1.24,2,2,0,0,0,.37,1.15,2.59,2.59,0,0,0,1.14.87Zm1.7,12.47a2.36,2.36,0,0,0,1.43-.82,2.26,2.26,0,0,0,.55-1.52A2.07,2.07,0,0,0,9,449.89,3,3,0,0,0,7.43,449Z" transform="translate(-0.82)" fill="#fff"/><path d="M20.53,461H18.27a22.49,22.49,0,0,1-2.73-5.63,18.21,18.21,0,0,1-.94-5.64,17.78,17.78,0,0,1,1.16-6.41,22.33,22.33,0,0,1,2.56-4.84h2.25a35.17,35.17,0,0,0-2.21,6,22.48,22.48,0,0,0-.25,9.21,26.62,26.62,0,0,0,1,3.84C19.36,458.38,19.84,459.53,20.53,461Z" transform="translate(-0.82)" fill="#fff"/><path d="M22.15,461c.65-1.39,1.1-2.46,1.37-3.2a23.29,23.29,0,0,0,.74-2.57c.22-1,.39-1.89.5-2.76a21.26,21.26,0,0,0,.17-2.67,22.48,22.48,0,0,0-.6-5.28,35,35,0,0,0-2.2-6h2.23a21.47,21.47,0,0,1,2.75,5.34,17.43,17.43,0,0,1,1,5.73,20,20,0,0,1-.77,5.25,22.12,22.12,0,0,1-2.9,6.2Z" transform="translate(-0.82)" fill="#fff"/><path d="M272.7,79.16V76.35a3.5,3.5,0,0,0,1.29-.26,1.81,1.81,0,0,0,.75-.71,3.24,3.24,0,0,0,.44-1.24,14.43,14.43,0,0,0,.09-2,16,16,0,0,1,.21-3.17,2.93,2.93,0,0,1,.76-1.44,3.71,3.71,0,0,1,1.61-.86,8.64,8.64,0,0,1,2.25-.21h.62v2.8a6.1,6.1,0,0,0-1.67.14,1.08,1.08,0,0,0-.55.45,2.26,2.26,0,0,0-.17,1c0,.5,0,1.43-.11,2.8a7.39,7.39,0,0,1-.3,1.89,4,4,0,0,1-.63,1.18,4.81,4.81,0,0,1-1.16,1,4,4,0,0,1,1.13.93,3.85,3.85,0,0,1,.67,1.29,8.35,8.35,0,0,1,.3,2q.09,2,.09,2.49a2.33,2.33,0,0,0,.18,1.08,1.26,1.26,0,0,0,.57.46,5.54,5.54,0,0,0,1.65.16V89h-.62a8.88,8.88,0,0,1-2.43-.25,3.28,3.28,0,0,1-1.42-.84,2.89,2.89,0,0,1-.78-1.45,13.4,13.4,0,0,1-.2-2.71,12.35,12.35,0,0,0-.19-2.8,2.42,2.42,0,0,0-.78-1.34A2.84,2.84,0,0,0,272.7,79.16Z" transform="translate(-0.82)" fill="#fff"/><path d="M289.88,79.16a3.5,3.5,0,0,0-1.29.26,1.85,1.85,0,0,0-.74.71,3.47,3.47,0,0,0-.44,1.25,14.08,14.08,0,0,0-.09,1.94,16.17,16.17,0,0,1-.21,3.18,3,3,0,0,1-.75,1.45,3.86,3.86,0,0,1-1.62.86,8.74,8.74,0,0,1-2.25.21h-.62V86.21a5.5,5.5,0,0,0,1.64-.16,1.16,1.16,0,0,0,.57-.46,2.08,2.08,0,0,0,.18-1c0-.48,0-1.39.1-2.73a7,7,0,0,1,.32-1.95,3.86,3.86,0,0,1,.69-1.25,4.07,4.07,0,0,1,1.09-.89,4.75,4.75,0,0,1-1.26-1.1,4.67,4.67,0,0,1-.75-2,34,34,0,0,1-.19-3.61,3.08,3.08,0,0,0-.16-1.17,1,1,0,0,0-.53-.46,5.83,5.83,0,0,0-1.7-.15V66.5h.62a9.34,9.34,0,0,1,2.42.24,3.22,3.22,0,0,1,1.42.84,3.1,3.1,0,0,1,.78,1.45,12.66,12.66,0,0,1,.21,2.72,14.42,14.42,0,0,0,.17,2.8,2.46,2.46,0,0,0,.79,1.34,2.87,2.87,0,0,0,1.6.46Z" transform="translate(-0.82)" fill="#fff"/><path d="M406.7,355.16v-2.81a3.5,3.5,0,0,0,1.29-.26,1.81,1.81,0,0,0,.75-.71,3.24,3.24,0,0,0,.44-1.24,14.43,14.43,0,0,0,.09-2,16,16,0,0,1,.21-3.17,2.93,2.93,0,0,1,.76-1.44,3.71,3.71,0,0,1,1.61-.86,8.64,8.64,0,0,1,2.25-.21h.62v2.8a6.1,6.1,0,0,0-1.67.14,1.08,1.08,0,0,0-.55.45,2.26,2.26,0,0,0-.17,1c0,.5,0,1.43-.11,2.8a7.39,7.39,0,0,1-.3,1.89,4,4,0,0,1-.63,1.18,4.81,4.81,0,0,1-1.16,1,4,4,0,0,1,1.13.93,3.85,3.85,0,0,1,.67,1.29,8.35,8.35,0,0,1,.3,2q.09,2,.09,2.49a2.33,2.33,0,0,0,.18,1.08,1.26,1.26,0,0,0,.57.46,5.54,5.54,0,0,0,1.65.16V365h-.62a8.88,8.88,0,0,1-2.43-.25,3.28,3.28,0,0,1-1.42-.84,2.89,2.89,0,0,1-.78-1.45,13.4,13.4,0,0,1-.2-2.71,12.35,12.35,0,0,0-.19-2.8,2.42,2.42,0,0,0-.78-1.34A2.84,2.84,0,0,0,406.7,355.16Z" transform="translate(-0.82)" fill="#fff"/><path d="M423.88,355.16a3.5,3.5,0,0,0-1.29.26,1.85,1.85,0,0,0-.74.71,3.47,3.47,0,0,0-.44,1.25,14.08,14.08,0,0,0-.09,1.94,16.17,16.17,0,0,1-.21,3.18,3,3,0,0,1-.75,1.45,3.86,3.86,0,0,1-1.62.86,8.74,8.74,0,0,1-2.25.21h-.62v-2.81a5.5,5.5,0,0,0,1.64-.16,1.16,1.16,0,0,0,.57-.46,2.08,2.08,0,0,0,.18-1c0-.48,0-1.39.1-2.73a7,7,0,0,1,.32-2,3.86,3.86,0,0,1,.69-1.25,4.07,4.07,0,0,1,1.09-.89,4.75,4.75,0,0,1-1.26-1.1,4.67,4.67,0,0,1-.75-2,34,34,0,0,1-.19-3.61,3.08,3.08,0,0,0-.16-1.17,1,1,0,0,0-.53-.46,5.83,5.83,0,0,0-1.7-.15v-2.8h.62a9.34,9.34,0,0,1,2.42.24,3.22,3.22,0,0,1,1.42.84,3.1,3.1,0,0,1,.78,1.45,12.66,12.66,0,0,1,.21,2.72,14.42,14.42,0,0,0,.17,2.8,2.46,2.46,0,0,0,.79,1.34,2.87,2.87,0,0,0,1.6.46Z" transform="translate(-0.82)" fill="#fff"/><path d="M270.7,463.16v-2.81a3.5,3.5,0,0,0,1.29-.26,1.81,1.81,0,0,0,.75-.71,3.24,3.24,0,0,0,.44-1.24,14.43,14.43,0,0,0,.09-2,16,16,0,0,1,.21-3.17,2.93,2.93,0,0,1,.76-1.44,3.71,3.71,0,0,1,1.61-.86,8.64,8.64,0,0,1,2.25-.21h.62v2.8a6.1,6.1,0,0,0-1.67.14,1.08,1.08,0,0,0-.55.45,2.26,2.26,0,0,0-.17,1c0,.5,0,1.43-.11,2.8a7.39,7.39,0,0,1-.3,1.89,4,4,0,0,1-.63,1.18,4.81,4.81,0,0,1-1.16,1,4,4,0,0,1,1.13.93,3.85,3.85,0,0,1,.67,1.29,8.35,8.35,0,0,1,.3,2q.09,2,.09,2.49a2.33,2.33,0,0,0,.18,1.08,1.26,1.26,0,0,0,.57.46,5.54,5.54,0,0,0,1.65.16V473h-.62a8.88,8.88,0,0,1-2.43-.25,3.28,3.28,0,0,1-1.42-.84,2.89,2.89,0,0,1-.78-1.45,13.4,13.4,0,0,1-.2-2.71,12.35,12.35,0,0,0-.19-2.8,2.42,2.42,0,0,0-.78-1.34A2.84,2.84,0,0,0,270.7,463.16Z" transform="translate(-0.82)" fill="#fff"/><path d="M287.88,463.16a3.5,3.5,0,0,0-1.29.26,1.85,1.85,0,0,0-.74.71,3.47,3.47,0,0,0-.44,1.25,14.08,14.08,0,0,0-.09,1.94,16.17,16.17,0,0,1-.21,3.18,3,3,0,0,1-.75,1.45,3.86,3.86,0,0,1-1.62.86,8.74,8.74,0,0,1-2.25.21h-.62v-2.81a5.5,5.5,0,0,0,1.64-.16,1.16,1.16,0,0,0,.57-.46,2.08,2.08,0,0,0,.18-1c0-.48,0-1.39.1-2.73a7,7,0,0,1,.32-2,3.86,3.86,0,0,1,.69-1.25,4.07,4.07,0,0,1,1.09-.89,4.75,4.75,0,0,1-1.26-1.1,4.67,4.67,0,0,1-.75-2,34,34,0,0,1-.19-3.61,3.08,3.08,0,0,0-.16-1.17,1,1,0,0,0-.53-.46,5.83,5.83,0,0,0-1.7-.15v-2.8h.62a9.34,9.34,0,0,1,2.42.24,3.22,3.22,0,0,1,1.42.84,3.1,3.1,0,0,1,.78,1.45,12.66,12.66,0,0,1,.21,2.72,14.42,14.42,0,0,0,.17,2.8,2.46,2.46,0,0,0,.79,1.34,2.87,2.87,0,0,0,1.6.46Z" transform="translate(-0.82)" fill="#fff"/><path d="M4.7,343.16v-2.81A3.5,3.5,0,0,0,6,340.09a1.81,1.81,0,0,0,.75-.71,3.24,3.24,0,0,0,.44-1.24,14.43,14.43,0,0,0,.09-2A16,16,0,0,1,7.48,333a2.93,2.93,0,0,1,.76-1.44,3.71,3.71,0,0,1,1.61-.86,8.64,8.64,0,0,1,2.25-.21h.62v2.8a6.1,6.1,0,0,0-1.67.14,1.08,1.08,0,0,0-.55.45,2.26,2.26,0,0,0-.17,1c0,.5,0,1.43-.11,2.8a7.39,7.39,0,0,1-.3,1.89,4,4,0,0,1-.63,1.18,4.81,4.81,0,0,1-1.16,1,4,4,0,0,1,1.13.93A3.85,3.85,0,0,1,9.93,344a8.35,8.35,0,0,1,.3,2q.09,2,.09,2.49a2.33,2.33,0,0,0,.18,1.08,1.26,1.26,0,0,0,.57.46,5.54,5.54,0,0,0,1.65.16V353H12.1a8.88,8.88,0,0,1-2.43-.25,3.28,3.28,0,0,1-1.42-.84,2.89,2.89,0,0,1-.78-1.45,13.4,13.4,0,0,1-.2-2.71,12.35,12.35,0,0,0-.19-2.8,2.42,2.42,0,0,0-.78-1.34A2.84,2.84,0,0,0,4.7,343.16Z" transform="translate(-0.82)" fill="#fff"/><path d="M21.88,343.16a3.5,3.5,0,0,0-1.29.26,1.85,1.85,0,0,0-.74.71,3.47,3.47,0,0,0-.44,1.25,14.08,14.08,0,0,0-.09,1.94,16.17,16.17,0,0,1-.21,3.18,3,3,0,0,1-.75,1.45,3.86,3.86,0,0,1-1.62.86,8.74,8.74,0,0,1-2.25.21h-.62v-2.81a5.5,5.5,0,0,0,1.64-.16,1.16,1.16,0,0,0,.57-.46,2.08,2.08,0,0,0,.18-1c0-.48,0-1.39.1-2.73a7,7,0,0,1,.32-2,3.86,3.86,0,0,1,.69-1.25,4.07,4.07,0,0,1,1.09-.89,4.75,4.75,0,0,1-1.26-1.1,4.67,4.67,0,0,1-.75-2,34,34,0,0,1-.19-3.61,3.08,3.08,0,0,0-.16-1.17,1,1,0,0,0-.53-.46,5.83,5.83,0,0,0-1.7-.15v-2.8h.62a9.34,9.34,0,0,1,2.42.24,3.22,3.22,0,0,1,1.42.84,3.1,3.1,0,0,1,.78,1.45,12.66,12.66,0,0,1,.21,2.72,14.42,14.42,0,0,0,.17,2.8,2.46,2.46,0,0,0,.79,1.34,2.87,2.87,0,0,0,1.6.46Z" transform="translate(-0.82)" fill="#fff"/><path d="M204.89,434l-11.78-5.12v-2.84L204.89,421v3.34l-8.21,3.14,8.21,3.25Z" transform="translate(-0.82)" fill="#fff"/><path d="M206,436.26l4.25-17.76h2.48l-4.3,17.76Z" transform="translate(-0.82)" fill="#fff"/><path d="M213.8,434v-3.31l8.22-3.24-8.22-3.2V421l11.79,5.1v2.81Z" transform="translate(-0.82)" fill="#fff"/><path d="M418.89,470l-11.78-5.12v-2.84L418.89,457v3.34l-8.21,3.14,8.21,3.25Z" transform="translate(-0.82)" fill="#fff"/><path d="M420,472.26l4.25-17.76h2.48l-4.3,17.76Z" transform="translate(-0.82)" fill="#fff"/><path d="M427.8,470v-3.31l8.22-3.24-8.22-3.2V457l11.79,5.1v2.81Z" transform="translate(-0.82)" fill="#fff"/><path d="M130.89,128l-11.78-5.12v-2.84L130.89,115v3.34l-8.21,3.14,8.21,3.25Z" transform="translate(-0.82)" fill="#fff"/><path d="M132,130.26l4.25-17.76h2.48l-4.3,17.76Z" transform="translate(-0.82)" fill="#fff"/><path d="M139.8,128v-3.31l8.22-3.24-8.22-3.2V115l11.79,5.1v2.81Z" transform="translate(-0.82)" fill="#fff"/><path d="M428.89,26l-11.78-5.12V18.05L428.89,13V16.3l-8.21,3.14,8.21,3.25Z" transform="translate(-0.82)" fill="#fff"/><path d="M430,28.26l4.25-17.76h2.48l-4.3,17.76Z" transform="translate(-0.82)" fill="#fff"/><path d="M437.8,26V22.71L446,19.47l-8.22-3.2V13l11.79,5.1v2.81Z" transform="translate(-0.82)" fill="#fff"/><path d="M7,29.54l-.85-8.72v-4H9.72v4l-.84,8.72ZM6.3,34V30.68H9.59V34Z" transform="translate(-0.82)" fill="#fff"/><path d="M13,24.41v-3H25v3Zm0,5.2v-3H25v3Z" transform="translate(-0.82)" fill="#fff"/><path d="M435,153.54l-.85-8.72v-4h3.56v4l-.84,8.72ZM434.3,158v-3.29h3.29V158Z" transform="translate(-0.82)" fill="#fff"/><path d="M441,148.41v-3h12v3Zm0,5.2v-3h12v3Z" transform="translate(-0.82)" fill="#fff"/><path d="M91,327.54l-.85-8.72v-4h3.56v4l-.84,8.72ZM90.3,332v-3.29h3.29V332Z" transform="translate(-0.82)" fill="#fff"/><path d="M97,322.41v-3h12v3Zm0,5.2v-3h12v3Z" transform="translate(-0.82)" fill="#fff"/><path d="M163.23,30h44.34l-4,45.53-18.18,5.15L167.26,75.5Zm36.08,9.32H171.48l.45,5.54h21.38l-.54,5.74h-14l.51,5.43h13.05l-.77,7.44-6.15,1.7-6.24-1.71L178.76,59h-5.52l.62,8.14,11.54,3.6,11.34-3.23,2.57-28.18Z" transform="translate(-0.82)"/><path d="M356.09,74.44c-4.48,6.43-3.93,14.8-.5,21.63.08.17.16.32.25.48a2.39,2.39,0,0,0,.16.32,1,1,0,0,0,.1.17,3.24,3.24,0,0,0,.17.32l.33.56a3.21,3.21,0,0,0,.19.31l.37.59.17.25c.2.32.42.63.65.94s.33.44.51.66l.18.24.47.57.17.21c.21.25.43.49.65.73,0,0,0,0,0,0a6,6,0,0,0,.89.93l.52.51.21.21.72.65h0l.12.11.65.55.26.22.55.42.29.22.6.43.23.16.06.05.59.39.26.17.92.57.26.14.69.39.39.2.49.26.12,0a1.24,1.24,0,0,1,.2.1l.79.36.16.08c.31.13.61.26.93.38l.22.08.86.32.11,0,1,.32.23.07c.34.1.66.22,1,.29,21.64,3.94,27.93-13,27.93-13-5.28,6.88-14.66,8.7-23.54,6.68-.33-.08-.66-.18-1-.28l-1.19-.38-.13,0-.85-.31a1.57,1.57,0,0,0-.23-.09c-.31-.13-.61-.25-.91-.39l-.19-.07-.76-.36-.22-.11c-.2-.09-.4-.2-.59-.3s-.27-.13-.4-.2l-.71-.4-.24-.14-.92-.56-.25-.17c-.23-.14-.44-.28-.66-.44l-.22-.15c-.21-.14-.41-.29-.62-.45l-.28-.21c-.18-.14-.37-.28-.55-.44l-.25-.19c-.24-.2-.48-.39-.71-.6l-.08-.06-.73-.67-.21-.2-.53-.51-.2-.21c-.22-.22-.44-.45-.65-.68l0,0c-.23-.24-.44-.49-.66-.74l-.17-.21-.48-.58-.72-1c-4.92-6.72-6.7-16-2.76-23.62M370,69c-3.24,4.66-3.06,10.89-.53,15.82a19.16,19.16,0,0,0,1.42,2.38,11.21,11.21,0,0,0,1.67,2.08c.23.26.48.51.73.76l.19.19.74.69,0,0c.28.25.58.49.87.72.08,0,.14.11.21.16q.44.34.9.66l0,0c.13.1.27.18.42.28l.19.12c.22.15.44.28.66.42l.11,0,.59.33.21.11.41.22.07,0,.86.4.2.08.7.29L381,95l.65.22.3.1a7.26,7.26,0,0,0,.94.27c16.71,2.77,20.58-10.1,20.58-10.1-3.49,5-10.23,7.4-17.41,5.54-.32-.08-.63-.18-.94-.28l-.29-.08-.66-.23-.3-.12-.71-.28-.19-.09-.88-.4-.43-.23-.26-.12-.55-.32-.14-.07-.66-.42-.21-.13-.44-.29c-.3-.21-.6-.44-.9-.66l-.2-.16a20.15,20.15,0,0,1-6.83-9.72,15.14,15.14,0,0,1,1.18-12.12m9.05-.31a9.73,9.73,0,0,0-.78,9.4,13.24,13.24,0,0,0,7.6,7.1l.41.15.18,0a4.43,4.43,0,0,0,.59.18c9.24,1.78,11.73-4.74,12.41-5.7-2.2,3.16-5.89,3.92-10.41,2.82a10.56,10.56,0,0,1-1.09-.34,13.13,13.13,0,0,1-1.3-.53,14.09,14.09,0,0,1-2.28-1.4c-4.05-3.06-6.55-8.92-3.91-13.69" transform="translate(-0.82)"/><path d="M51,251a9,9,0,1,1,9,9A9,9,0,0,1,51,251ZM33,269a9,9,0,0,1,9-9h9v9a9,9,0,0,1-18,0Zm18-45v18h9a9,9,0,1,0,0-18Zm-18,9a9,9,0,0,0,9,9h9V224H42A9,9,0,0,0,33,233Zm0,18a9,9,0,0,0,9,9h9V242H42A9,9,0,0,0,33,251Z" transform="translate(-0.82)"/><path d="M58,381h52.92v52.91H58Zm48.58,40.29c-.38-2.41-2-4.44-6.62-6.33-1.62-.76-3.43-1.29-4-2.52a2.59,2.59,0,0,1-.1-1.55c.33-1.42,2-1.85,3.34-1.46a3.61,3.61,0,0,1,2.15,2c2.28-1.49,2.28-1.49,3.87-2.48a9.08,9.08,0,0,0-1.29-1.72c-1.39-1.56-3.24-2.35-6.25-2.28l-1.56.2a7.07,7.07,0,0,0-3.77,2.21,6.93,6.93,0,0,0,1.26,9.86c3,2.25,7.41,2.74,8,4.86.53,2.58-1.92,3.41-4.33,3.11a5.8,5.8,0,0,1-3.87-2.95l-4,2.32A9,9,0,0,0,91.12,427c3.83,3.87,13.43,3.67,15.15-2.22a7.48,7.48,0,0,0,.16-3.64Zm-19.8-16h-5c0,4.27,0,8.52,0,12.8,0,2.71.14,5.21-.3,6-.73,1.52-2.61,1.33-3.46,1.06a4.32,4.32,0,0,1-1.83-1.88c-.14-.23-.24-.44-.28-.44l-4,2.49a7.79,7.79,0,0,0,2.92,3.34,9.7,9.7,0,0,0,7.07.89,6.18,6.18,0,0,0,4-3.11c1.13-2.05.89-4.56.88-7.38,0-4.52,0-9,0-13.62Z" transform="translate(-0.82)"/><path d="M462.38,286.27l-19.46-19.46a2.89,2.89,0,0,0-4.07,0l-4,4L440,276a3.41,3.41,0,0,1,4.32,4.35l4.93,4.94a3.41,3.41,0,1,1-2.05,1.94l-4.62-4.6v12.12a3.34,3.34,0,0,1,.91.64,3.41,3.41,0,1,1-3.72-.75V282.38a3.45,3.45,0,0,1-1.12-.75,3.4,3.4,0,0,1-.73-3.73l-5-5.06-13.34,13.34a2.87,2.87,0,0,0,0,4.06L439,309.7a2.87,2.87,0,0,0,4.06,0l19.37-19.37a2.87,2.87,0,0,0,0-4.06" transform="translate(-0.82)"/><path d="M365.51,387.59h-26a6.51,6.51,0,0,0-6.5,6.49v26a6.52,6.52,0,0,0,6.5,6.5h26a6.52,6.52,0,0,0,6.49-6.5v-26A6.51,6.51,0,0,0,365.51,387.59ZM362,415a5.09,5.09,0,0,1-1.49,2,7.72,7.72,0,0,1-2.61,1.33,12.89,12.89,0,0,1-3.79.5H343.61V396.05h11.05a7.83,7.83,0,0,1,4.9,1.4,5,5,0,0,1,1.85,4.24,5.06,5.06,0,0,1-.84,2.94,5.36,5.36,0,0,1-2.4,1.87v.08a4.9,4.9,0,0,1,3.16,2,6.65,6.65,0,0,1,1.07,3.88,6.49,6.49,0,0,1-.49,2.48l0,0Zm-4.5-5.61a4,4,0,0,0-2.81-.9h-7v7.09h7a4,4,0,0,0,2.81-.94,3.51,3.51,0,0,0,1-2.66,3.37,3.37,0,0,0-1-2.59h0Zm-1-4.58a2.89,2.89,0,0,0,1-2.34,2.93,2.93,0,0,0-.86-2.42,3.82,3.82,0,0,0-2.48-.71h-6.5v6.28h6.5a3.59,3.59,0,0,0,2.38-.81Z" transform="translate(-0.82)"/><path d="M379.28,203V220.2h14.33v2.87h11.47V220.2h25.79V203Zm14.33,14.32h-2.86v-8.59h-2.87v8.59h-5.73V205.87h11.46Zm8.6,0v2.87h-5.73V205.87h11.46v11.47h-5.73Zm25.79,0h-2.86v-8.59h-2.87v8.59H419.4v-8.59h-2.86v8.59H410.8V205.87H428Zm-25.79-8.59h2.87v5.73h-2.87Z" transform="translate(-0.82)"/></g></g></svg>