<svg xmlns="http://www.w3.org/2000/svg" viewBox="0 0 359.34 303.98"><title>whiteKeyboardРесурс 2</title><g id="Слой_2" data-name="Слой 2"><g id="OBJECTS"><path d="M90.92,108.86H65.11a3.24,3.24,0,0,1-3.24-3.23h0a3.24,3.24,0,0,1,3.24-3.24H90.92a3.24,3.24,0,0,1,3.24,3.24h0A3.24,3.24,0,0,1,90.92,108.86Z" fill="#fff" opacity="0.3"/><path d="M90.87,74.9h0a3.24,3.24,0,0,0-3.23-3.24H61.82a3.24,3.24,0,0,0-3.24,3.24h0a3.24,3.24,0,0,0,3.24,3.24h2a1.78,1.78,0,0,1,1.78,1.78v0a1.78,1.78,0,0,1-1.78,1.78H59A3.24,3.24,0,0,0,55.71,85h0A3.24,3.24,0,0,0,59,88.22H84.76A3.24,3.24,0,0,0,88,85h0a3.24,3.24,0,0,0-3.24-3.23h-3A1.78,1.78,0,0,1,80,80v0a1.78,1.78,0,0,1,1.78-1.78h5.89A3.24,3.24,0,0,0,90.87,74.9Z" fill="#fff" opacity="0.3"/><path d="M333.72,38A3.93,3.93,0,0,1,329.78,42" fill="none" stroke="#ffefb0" stroke-linecap="round" stroke-linejoin="round"/><path d="M333.72,38A3.94,3.94,0,0,0,337.67,42" fill="none" stroke="#ffefb0" stroke-linecap="round" stroke-linejoin="round"/><path d="M333.72,45.93A3.94,3.94,0,0,0,329.78,42" fill="none" stroke="#ffefb0" stroke-linecap="round" stroke-linejoin="round"/><path d="M333.72,45.93A4,4,0,0,1,337.67,42" fill="none" stroke="#ffefb0" stroke-linecap="round" stroke-linejoin="round"/><path d="M58.45,117a4,4,0,0,1-3.94,4" fill="none" stroke="#ffefb0" stroke-linecap="round" stroke-linejoin="round"/><path d="M58.45,117a4,4,0,0,0,3.95,4" fill="none" stroke="#ffefb0" stroke-linecap="round" stroke-linejoin="round"/><path d="M58.45,124.92a4,4,0,0,0-3.94-4" fill="none" stroke="#ffefb0" stroke-linecap="round" stroke-linejoin="round"/><path d="M58.45,124.92a4,4,0,0,1,3.95-4" fill="none" stroke="#ffefb0" stroke-linecap="round" stroke-linejoin="round"/><path d="M276.73,35.42a4,4,0,0,1-4,3.95" fill="none" stroke="#ffefb0" stroke-linecap="round" stroke-linejoin="round"/><path d="M276.73,35.42a3.94,3.94,0,0,0,3.94,3.95" fill="none" stroke="#ffefb0" stroke-linecap="round" stroke-linejoin="round"/><path d="M276.73,43.34a4,4,0,0,0-4-4" fill="none" stroke="#ffefb0" stroke-linecap="round" stroke-linejoin="round"/><path d="M276.73,43.34a3.94,3.94,0,0,1,3.94-4" fill="none" stroke="#ffefb0" stroke-linecap="round" stroke-linejoin="round"/><path d="M39,81a3.94,3.94,0,0,1-3.94,4" fill="none" stroke="#ffefb0" stroke-linecap="round" stroke-linejoin="round"/><path d="M39,81a4,4,0,0,0,4,4" fill="none" stroke="#ffefb0" stroke-linecap="round" stroke-linejoin="round"/><path d="M39,88.9A3.94,3.94,0,0,0,35,85" fill="none" stroke="#ffefb0" stroke-linecap="round" stroke-linejoin="round"/><path d="M39,88.9a4,4,0,0,1,4-4" fill="none" stroke="#ffefb0" stroke-linecap="round" stroke-linejoin="round"/><path d="M114.68,53.11a4,4,0,0,1-4,4" fill="none" stroke="#ffefb0" stroke-linecap="round" stroke-linejoin="round"/><path d="M114.68,53.11a4,4,0,0,0,3.94,4" fill="none" stroke="#ffefb0" stroke-linecap="round" stroke-linejoin="round"/><path d="M114.68,61a4,4,0,0,0-4-4" fill="none" stroke="#ffefb0" stroke-linecap="round" stroke-linejoin="round"/><path d="M114.68,61a4,4,0,0,1,3.94-4" fill="none" stroke="#ffefb0" stroke-linecap="round" stroke-linejoin="round"/><path d="M303.65,17.63a4,4,0,0,1-3.94,3.95" fill="none" stroke="#ffefb0" stroke-linecap="round" stroke-linejoin="round"/><path d="M303.65,17.63a4,4,0,0,0,4,3.95" fill="none" stroke="#ffefb0" stroke-linecap="round" stroke-linejoin="round"/><path d="M303.65,25.55a4,4,0,0,0-3.94-3.95" fill="none" stroke="#ffefb0" stroke-linecap="round" stroke-linejoin="round"/><path d="M303.65,25.55a4,4,0,0,1,4-3.95" fill="none" stroke="#ffefb0" stroke-linecap="round" stroke-linejoin="round"/><path d="M317.19,274.21h0a6,6,0,0,1,6-6h5.36a7.53,7.53,0,0,0,7.53-7.53h0a7.53,7.53,0,0,0-7.53-7.52H303.93a6,6,0,0,1-6-6h0a6,6,0,0,1,6-6h5.73a7.53,7.53,0,0,0,7.53-7.53h0a7.53,7.53,0,0,0-7.53-7.52H46.3a7.53,7.53,0,0,0-7.53,7.52h0a7.53,7.53,0,0,0,7.53,7.53h7.8a6,6,0,0,1,6,6h0a6,6,0,0,1-6,6H20.68a7.53,7.53,0,0,0-7.53,7.52h0a7.53,7.53,0,0,0,7.53,7.53H76.74a6,6,0,0,1,6,6h0a6,6,0,0,1-6,6H40.91a7.53,7.53,0,0,0-7.53,7.52h0a7.53,7.53,0,0,0,7.53,7.53H344.44a7.53,7.53,0,0,0,7.53-7.53h0a7.53,7.53,0,0,0-7.53-7.52H323.16A6,6,0,0,1,317.19,274.21Z" fill="#fff"/><path d="M119.72,256.46H91a3.48,3.48,0,0,1,0-7h28.68a3.48,3.48,0,1,1,0,7Z" fill="#8f6fc9"/><path d="M137,256.46h-4.23a3.48,3.48,0,0,1-3.48-3.48h0a3.48,3.48,0,0,1,3.48-3.48H137a3.48,3.48,0,0,1,3.48,3.48h0A3.48,3.48,0,0,1,137,256.46Z" fill="#8f6fc9"/><path d="M153.48,256.46h-4.22a3.48,3.48,0,0,1-3.48-3.48h0a3.48,3.48,0,0,1,3.48-3.48h4.22A3.48,3.48,0,0,1,157,253h0A3.48,3.48,0,0,1,153.48,256.46Z" fill="#8f6fc9"/><path d="M119.72,282.47H91a3.48,3.48,0,1,1,0-7h28.68a3.48,3.48,0,1,1,0,7Z" fill="#8f6fc9"/><path d="M137,282.47h-4.23a3.47,3.47,0,0,1-3.48-3.47h0a3.48,3.48,0,0,1,3.48-3.48H137a3.48,3.48,0,0,1,3.48,3.48h0A3.47,3.47,0,0,1,137,282.47Z" fill="#8f6fc9"/><path d="M153.48,282.47h-4.22a3.47,3.47,0,0,1-3.48-3.47h0a3.48,3.48,0,0,1,3.48-3.48h4.22A3.48,3.48,0,0,1,157,279h0A3.47,3.47,0,0,1,153.48,282.47Z" fill="#8f6fc9"/><path d="M180.86,282.47h-4.23a3.47,3.47,0,0,1-3.48-3.47h0a3.48,3.48,0,0,1,3.48-3.48h4.23a3.48,3.48,0,0,1,3.48,3.48h0A3.47,3.47,0,0,1,180.86,282.47Z" fill="#8f6fc9"/><path d="M129,269.47H100.34a3.48,3.48,0,1,1,0-7H129a3.48,3.48,0,0,1,0,7Z" fill="#8f6fc9"/><path d="M146.29,269.47h-4.23a3.48,3.48,0,0,1-3.48-3.48h0a3.48,3.48,0,0,1,3.48-3.48h4.23a3.48,3.48,0,0,1,3.48,3.48h0A3.48,3.48,0,0,1,146.29,269.47Z" fill="#8f6fc9"/><path d="M162.78,269.47h-4.22a3.48,3.48,0,0,1-3.48-3.48h0a3.48,3.48,0,0,1,3.48-3.48h4.22a3.48,3.48,0,0,1,3.48,3.48h0A3.48,3.48,0,0,1,162.78,269.47Z" fill="#8f6fc9"/><path d="M53.1,226.79c0-5.38,2.59-5.38,2.59-10.76s-2.59-5.38-2.59-10.76,2.59-5.39,2.59-10.77-2.59-5.38-2.59-10.77" fill="none" stroke="#fff" stroke-linecap="round" stroke-linejoin="round" stroke-width="2.86" opacity="0.46"/><path d="M61.76,208.48c0-6.18,3-6.18,3-12.37s-3-6.18-3-12.37,3-6.19,3-12.38-3-6.19-3-12.38" fill="none" stroke="#fff" stroke-linecap="round" stroke-linejoin="round" stroke-width="2.86" opacity="0.46"/><path d="M26.43,236.17a6.54,6.54,0,0,0,11.14,4.66V231.5a6.55,6.55,0,0,0-11.14,4.67Z" fill="none"/><path d="M37.57,220.9V228A9.27,9.27,0,0,0,33,226.75a9.42,9.42,0,1,0,4.59,17.63v16a2.35,2.35,0,0,0,2.35,2.34H54.39V220.9Zm0,19.93a6.55,6.55,0,1,1,0-9.33Z" fill="#d5e6f0"/><path d="M54.39,220.9v41.84H70.94a2.35,2.35,0,0,0,2.35-2.34V220.9Z" fill="#fff"/><path d="M336.45,39.38H310.64a3.24,3.24,0,0,1-3.24-3.24h0a3.24,3.24,0,0,1,3.24-3.24h25.81a3.24,3.24,0,0,1,3.24,3.24h0A3.24,3.24,0,0,1,336.45,39.38Z" fill="#fff" opacity="0.3"/><path d="M344.66,76.8H318.85a3.24,3.24,0,0,1-3.24-3.24h0a3.23,3.23,0,0,1,3.24-3.23h25.81a3.23,3.23,0,0,1,3.24,3.23h0A3.24,3.24,0,0,1,344.66,76.8Z" fill="#fff" opacity="0.3"/><path d="M277.22,55.26H261.77A3.24,3.24,0,0,1,258.54,52h0a3.24,3.24,0,0,1,3.23-3.24h15.45A3.24,3.24,0,0,1,280.46,52h0A3.24,3.24,0,0,1,277.22,55.26Z" fill="#fff" opacity="0.3"/><path d="M42.25,108.86H26.81a3.24,3.24,0,0,1-3.24-3.23h0a3.24,3.24,0,0,1,3.24-3.24H42.25a3.24,3.24,0,0,1,3.24,3.24h0A3.24,3.24,0,0,1,42.25,108.86Z" fill="#fff" opacity="0.3"/><path d="M323.24,52h0A3.24,3.24,0,0,0,320,48.79H294.19A3.24,3.24,0,0,0,291,52h0a3.24,3.24,0,0,0,3.24,3.24h2A1.77,1.77,0,0,1,298,57.05v0a1.77,1.77,0,0,1-1.78,1.78h-4.88a3.24,3.24,0,0,0-3.24,3.24h0a3.24,3.24,0,0,0,3.24,3.24h25.81a3.24,3.24,0,0,0,3.24-3.24h0a3.24,3.24,0,0,0-3.24-3.24h-3a1.77,1.77,0,0,1-1.78-1.78v0a1.77,1.77,0,0,1,1.78-1.78H320A3.24,3.24,0,0,0,323.24,52Z" fill="#fff" opacity="0.3"/><rect x="294.74" y="68.46" width="25.32" height="12.21" rx="6.11" ry="6.11" transform="translate(614.8 149.13) rotate(180)" fill="#ffefb0"/><circle cx="308.85" cy="68.46" r="5.8" fill="#ffefb0"/><circle cx="302.55" cy="68.03" r="3.39" fill="#ffefb0"/><path d="M104.66,28.24a5.29,5.29,0,0,0,.11-1.06,5.56,5.56,0,0,0-5.56-5.56,5.45,5.45,0,0,0-2.64.67,9.49,9.49,0,0,0-17.18,5.58v.07a10,10,0,0,0-8.86,9.93h0a10,10,0,0,0,10,10H102a10,10,0,0,0,10-10h0A10,10,0,0,0,104.66,28.24Z" fill="#ffefb0" opacity="0.87"/><path d="M87.32,37.41,87.45,40c.08,1.42.47,1.83,1.37,1.83h.41v2.31H87.79a2.69,2.69,0,0,1-2.86-2.85l-.2-3.45c-.08-1.18-.34-1.54-1.42-1.54V34c1.08,0,1.34-.36,1.42-1.54l.2-3.44a2.7,2.7,0,0,1,2.86-2.86h1.44v2.32h-.41c-.9,0-1.29.41-1.37,1.82l-.13,2.57a2.19,2.19,0,0,1-1.67,2.29A2.2,2.2,0,0,1,87.32,37.41Z" fill="#8f6fc9"/><path d="M95.2,32.83l-.13-2.57c-.08-1.41-.46-1.82-1.36-1.82h-.42V26.12h1.44A2.7,2.7,0,0,1,97.59,29l.21,3.44c.07,1.18.33,1.54,1.41,1.54v2.32c-1.08,0-1.34.36-1.41,1.54l-.21,3.45a2.69,2.69,0,0,1-2.86,2.85H93.29V41.81h.42c.9,0,1.28-.41,1.36-1.83l.13-2.57a2.2,2.2,0,0,1,1.67-2.29A2.19,2.19,0,0,1,95.2,32.83Z" fill="#8f6fc9"/><path d="M216.34,35.11a5.29,5.29,0,0,0,.11-1.06,5.56,5.56,0,0,0-5.56-5.56,5.45,5.45,0,0,0-2.64.67,9.49,9.49,0,0,0-17.18,5.58v.07a10,10,0,0,0-8.86,9.93h0a10,10,0,0,0,10,10h21.47a10,10,0,0,0,10-10h0A10,10,0,0,0,216.34,35.11Z" fill="#ffefb0" opacity="0.87"/><path d="M203.88,30.77a7.26,7.26,0,0,0-3.19,14.1l-.11.84a.55.55,0,0,0,.39.59l-.46,3.5-.16,0c-.16,0-.31.06-.32.19l-1.22,9.35a.31.31,0,0,0,.31.31h-.07l0,.38c0,.1.08.2.22.21l.6.08.61.08a.21.21,0,0,0,.26-.15l.05-.38h-.06a.31.31,0,0,0,.38-.21l1.22-9.36A.28.28,0,0,0,202,50l-.16,0,.46-3.51a.53.53,0,0,0,.52-.46l.1-.78a7.26,7.26,0,0,0,.94-14.46Zm-1.65,12.69A5.55,5.55,0,0,1,197.5,39a5.38,5.38,0,0,1-.05-1.75A5.56,5.56,0,0,1,205.34,33,5.61,5.61,0,0,1,208,35.66a5.55,5.55,0,0,1-5.75,7.8Z" fill="#8f6fc9"/><path d="M46,132.82a5.39,5.39,0,0,0,.1-1.07,5.54,5.54,0,0,0-5.55-5.55,5.62,5.62,0,0,0-2.65.66,9.49,9.49,0,0,0-17.17,5.59v.06a10,10,0,0,0-8.87,9.94h0a10,10,0,0,0,10,10H43.29a10,10,0,0,0,10-10h0A10,10,0,0,0,46,132.82Z" fill="#ffefb0" opacity="0.87"/><path d="M38,146V143.8l6.2-2.21L38,139.37v-2.18l9,3.32v2.16Z" fill="#8f6fc9"/><path d="M16.76,142.67v-2.16l9-3.32v2.18l-6.21,2.22,6.21,2.21V146Z" fill="#8f6fc9"/><path d="M34.19,134.92h1.88l-5.48,13.91H28.7Z" fill="#8f6fc9"/><path d="M250.85,34.82V32.63l6.2-2.21-6.2-2.22V26l9,3.32V31.5Z" fill="#8f6fc9"/><path d="M229.58,31.5V29.34l9-3.32V28.2l-6.2,2.22,6.2,2.21v2.19Z" fill="#8f6fc9"/><path d="M247,23.75h1.89l-5.49,13.91h-1.89Z" fill="#8f6fc9"/><path d="M154.92,35.88,157,38a5,5,0,0,1,7-.19l.55-.55,1.65-1.65a7.53,7.53,0,0,0-5.48-2.18A8.41,8.41,0,0,0,154.92,35.88Z" fill="#80a880"/><path d="M156.6,29.25a13.89,13.89,0,0,0-5.08,3.23l2.08,2.08A10.52,10.52,0,0,1,159,31.67a9.45,9.45,0,0,1,8.59,2.5l2.21-2.2A12.55,12.55,0,0,0,156.6,29.25Z" fill="#80a880"/><path d="M158.38,39.34l2,2,2.15-2.14A3,3,0,0,0,158.38,39.34Z" fill="#80a880"/><path d="M20.69,71.3l2.08,2.08a5,5,0,0,1,7-.2l.55-.55L32,71A7.53,7.53,0,0,0,26.5,68.8,8.38,8.38,0,0,0,20.69,71.3Z" fill="#8f6fc9"/><path d="M22.37,64.67a13.75,13.75,0,0,0-5.09,3.23L19.37,70a10.55,10.55,0,0,1,5.41-2.9,9.47,9.47,0,0,1,8.6,2.51l2.2-2.21A12.53,12.53,0,0,0,22.37,64.67Z" fill="#8f6fc9"/><path d="M24.15,74.76l2,2,2.15-2.15A3,3,0,0,0,24.15,74.76Z" fill="#8f6fc9"/><path d="M114.27,26.64a.5.5,0,0,1-.5-.5c0-.51,0-1,0-1.53a.5.5,0,0,1,.53-.47.5.5,0,0,1,.47.53c0,.48,0,1,0,1.47A.5.5,0,0,1,114.27,26.64Zm.39-4.48h-.09a.49.49,0,0,1-.4-.58c.09-.5.19-1,.31-1.49a.49.49,0,0,1,.6-.37.5.5,0,0,1,.37.6q-.17.71-.3,1.44A.49.49,0,0,1,114.66,22.16Zm1.17-4.34a.57.57,0,0,1-.18,0,.49.49,0,0,1-.29-.64c.17-.48.36-1,.56-1.42a.5.5,0,0,1,.92.4c-.19.44-.38.9-.54,1.36A.52.52,0,0,1,115.83,17.82Zm1.91-4.07a.45.45,0,0,1-.25-.07.49.49,0,0,1-.18-.68c.25-.44.52-.87.81-1.3a.5.5,0,1,1,.83.55c-.27.41-.53.83-.78,1.25A.5.5,0,0,1,117.74,13.75Zm2.59-3.67a.5.5,0,0,1-.38-.82q.49-.59,1-1.14a.5.5,0,1,1,.73.69c-.34.35-.67.72-1,1.09A.49.49,0,0,1,120.33,10.08Zm37.41-1.87a.47.47,0,0,1-.35-.14q-.52-.51-1.08-1a.49.49,0,0,1-.06-.7.51.51,0,0,1,.71-.06c.38.34.76.68,1.13,1a.51.51,0,0,1,0,.71A.51.51,0,0,1,157.74,8.21ZM123.52,6.92a.49.49,0,0,1-.38-.18A.51.51,0,0,1,123.2,6c.4-.32.8-.64,1.21-.94a.5.5,0,1,1,.59.8c-.39.3-.78.6-1.16.91A.47.47,0,0,1,123.52,6.92Zm30.73-1.54A.57.57,0,0,1,154,5.3c-.41-.28-.82-.54-1.24-.79a.51.51,0,0,1-.18-.69.51.51,0,0,1,.69-.17c.44.26.87.53,1.29.82a.5.5,0,0,1-.28.91Zm-27-1a.49.49,0,0,1-.44-.26.5.5,0,0,1,.19-.68q.66-.37,1.35-.72a.5.5,0,1,1,.44.9c-.44.22-.87.45-1.3.69A.42.42,0,0,1,127.22,4.36Zm23.1-1.16a.45.45,0,0,1-.2,0c-.45-.2-.9-.39-1.36-.56a.51.51,0,0,1-.3-.64.52.52,0,0,1,.65-.3c.48.18.95.38,1.41.58a.5.5,0,0,1,.26.66A.51.51,0,0,1,150.32,3.2Zm-19-.72a.5.5,0,0,1-.17-1c.48-.17,1-.33,1.45-.47a.49.49,0,0,1,.62.34.5.5,0,0,1-.34.62c-.47.14-.93.29-1.39.45Zm14.77-.74H146c-.48-.12-1-.22-1.44-.31a.5.5,0,0,1-.4-.58.48.48,0,0,1,.58-.4c.51.09,1,.2,1.5.32a.5.5,0,0,1-.12,1Zm-10.42-.39a.5.5,0,0,1-.5-.42.5.5,0,0,1,.41-.57c.5-.08,1-.15,1.52-.21a.51.51,0,0,1,.55.45.5.5,0,0,1-.45.55c-.48.05-1,.11-1.45.2Zm6-.29h0c-.48,0-1-.05-1.47-.05a.49.49,0,0,1-.49-.5.5.5,0,0,1,.5-.5h0q.76,0,1.53.06a.49.49,0,0,1,.46.53A.49.49,0,0,1,141.63,1.06Z" fill="#8f6fc9"/><polygon points="164.19 14.79 160.49 5.17 154.87 10.41 164.19 14.79" fill="#8f6fc9"/><path d="M292.08,158.62c.42.26.85.5,1.28.74a.49.49,0,0,1,.2.67.51.51,0,0,1-.68.21c-.44-.24-.88-.5-1.32-.77a.49.49,0,0,1-.17-.68A.51.51,0,0,1,292.08,158.62Zm3.94,2c.46.18.92.35,1.39.5a.51.51,0,0,1,.32.63.49.49,0,0,1-.63.32c-.49-.16-1-.33-1.44-.52a.49.49,0,0,1-.28-.65l0-.07A.5.5,0,0,1,296,160.59Zm4.23,1.25c.48.1,1,.18,1.45.25a.5.5,0,0,1,.42.57.49.49,0,0,1-.56.42c-.5-.07-1-.15-1.51-.26a.5.5,0,0,1-.39-.59.56.56,0,0,1,.07-.16A.5.5,0,0,1,300.25,161.84Zm4.38.49c.49,0,1,0,1.47,0a.5.5,0,0,1,0,1c-.51,0-1,0-1.53,0a.5.5,0,0,1-.49-.51.52.52,0,0,1,.07-.25A.51.51,0,0,1,304.63,162.33Zm4.4-.28,1.44-.27a.51.51,0,0,1,.6.39.5.5,0,0,1-.39.59c-.49.11-1,.2-1.5.28a.51.51,0,0,1-.57-.42.49.49,0,0,1,.07-.34A.48.48,0,0,1,309,162.05Zm21.12-30.9a.5.5,0,0,1,.6.38c.11.49.2,1,.29,1.5a.51.51,0,0,1-.42.57.5.5,0,0,1-.57-.41c-.08-.49-.17-1-.28-1.45a.53.53,0,0,1,.06-.37A.5.5,0,0,1,330.15,131.15ZM313.31,161l1.38-.51a.5.5,0,1,1,.37.93c-.47.19-.95.36-1.43.53a.49.49,0,0,1-.63-.31.53.53,0,0,1,0-.43A.52.52,0,0,1,313.31,161Zm17.52-25.41a.5.5,0,0,1,.52.48c0,.51,0,1,0,1.53a.5.5,0,0,1-.51.49.51.51,0,0,1-.49-.51c0-.49,0-1,0-1.47a.45.45,0,0,1,.07-.28A.51.51,0,0,1,330.83,135.59Zm-13.49,23.64c.43-.24.85-.48,1.27-.75a.51.51,0,0,1,.69.16.49.49,0,0,1-.16.69q-.64.4-1.32.78a.51.51,0,0,1-.68-.2.52.52,0,0,1,0-.5A.39.39,0,0,1,317.34,159.23Zm13.38-19.15a.51.51,0,0,1,.43.57c-.07.5-.15,1-.25,1.51a.5.5,0,0,1-1-.19c.09-.49.17-1,.24-1.46a.44.44,0,0,1,.07-.19A.5.5,0,0,1,330.72,140.08ZM321,156.78c.38-.31.76-.63,1.12-1a.5.5,0,0,1,.71,0,.49.49,0,0,1,0,.7c-.38.35-.76.68-1.16,1a.5.5,0,0,1-.7-.08.48.48,0,0,1,0-.57A.69.69,0,0,1,321,156.78Zm8.82-12.29a.5.5,0,0,1,.33.63q-.24.72-.51,1.44a.5.5,0,1,1-.93-.36c.17-.46.34-.92.48-1.39l.05-.11A.51.51,0,0,1,329.82,144.49Zm-5.64,9.23c.32-.36.63-.74.93-1.13a.5.5,0,0,1,.7-.09.51.51,0,0,1,.09.7c-.31.4-.64.8-1,1.18a.5.5,0,0,1-.8-.59Zm4-5.05a.51.51,0,0,1,.21.67c-.24.45-.49.9-.76,1.34h0a.5.5,0,1,1-.85-.52c.25-.42.49-.85.72-1.28l0,0A.5.5,0,0,1,328.17,148.67Z" fill="#8f6fc9"/><polygon points="327.61 122.44 333.87 130.62 326.46 132.67 327.61 122.44" fill="#8f6fc9"/><path d="M285.23,51.22c.26-.42.5-.85.74-1.28a.49.49,0,0,1,.67-.2.51.51,0,0,1,.21.68c-.24.44-.5.88-.77,1.32a.49.49,0,0,1-.68.17A.51.51,0,0,1,285.23,51.22Zm2-3.95c.18-.45.35-.91.5-1.38a.51.51,0,0,1,.63-.32.49.49,0,0,1,.32.63c-.16.49-.33,1-.52,1.44a.49.49,0,0,1-.65.28l-.07,0A.49.49,0,0,1,287.2,47.27Zm1.25-4.22c.1-.48.18-1,.25-1.45a.5.5,0,0,1,.57-.42.49.49,0,0,1,.42.56c-.07.5-.15,1-.26,1.51a.5.5,0,0,1-.59.39.56.56,0,0,1-.16-.07A.5.5,0,0,1,288.45,43.05Zm.49-4.38c0-.49,0-1,0-1.47a.5.5,0,1,1,1,0c0,.51,0,1,0,1.53a.5.5,0,0,1-.51.49.52.52,0,0,1-.25-.07A.51.51,0,0,1,288.94,38.67Zm-.28-4.4c-.08-.48-.17-1-.27-1.44a.51.51,0,0,1,.39-.6.5.5,0,0,1,.59.39c.11.49.2,1,.28,1.5a.51.51,0,0,1-.42.57.49.49,0,0,1-.34-.07A.48.48,0,0,1,288.66,34.27Zm-30.9-21.12a.5.5,0,0,1,.38-.6c.49-.11,1-.2,1.5-.29a.51.51,0,0,1,.57.42.5.5,0,0,1-.41.57c-.49.08-1,.17-1.45.28a.53.53,0,0,1-.37-.06A.5.5,0,0,1,257.76,13.15ZM287.61,30q-.24-.69-.51-1.38a.5.5,0,1,1,.93-.37c.19.47.36,1,.53,1.43a.49.49,0,0,1-.31.63.53.53,0,0,1-.43,0A.52.52,0,0,1,287.61,30ZM262.2,12.47a.5.5,0,0,1,.48-.52c.51,0,1,0,1.53,0a.5.5,0,0,1,0,1c-.49,0-1,0-1.47,0a.45.45,0,0,1-.28-.07A.51.51,0,0,1,262.2,12.47ZM285.84,26c-.24-.43-.48-.85-.75-1.27a.51.51,0,0,1,.16-.69.49.49,0,0,1,.69.16q.4.64.78,1.32a.51.51,0,0,1-.2.68.52.52,0,0,1-.5,0A.39.39,0,0,1,285.84,26ZM266.69,12.58a.51.51,0,0,1,.57-.43c.5.07,1,.15,1.51.25a.49.49,0,0,1,.39.58.5.5,0,0,1-.58.4c-.49-.09-1-.17-1.46-.24a.44.44,0,0,1-.19-.07A.52.52,0,0,1,266.69,12.58Zm16.7,9.72c-.31-.38-.62-.76-1-1.12a.5.5,0,0,1,0-.71.49.49,0,0,1,.7,0c.35.38.68.76,1,1.16a.5.5,0,0,1-.08.7.48.48,0,0,1-.57,0A.69.69,0,0,1,283.39,22.3ZM271.1,13.48a.5.5,0,0,1,.63-.33l1.44.51a.5.5,0,1,1-.36.93c-.46-.17-.92-.34-1.39-.48l-.11,0A.51.51,0,0,1,271.1,13.48Zm9.23,5.64c-.36-.32-.74-.63-1.13-.93a.5.5,0,0,1-.09-.7.51.51,0,0,1,.7-.09c.4.31.8.64,1.18,1a.5.5,0,0,1-.59.8Zm-5.05-4a.52.52,0,0,1,.68-.21c.44.24.89.49,1.33.76h0a.5.5,0,1,1-.52.85c-.42-.25-.85-.49-1.28-.72l0,0A.5.5,0,0,1,275.28,15.13Z" fill="#8f6fc9"/><polygon points="249.05 15.69 257.23 9.43 259.28 16.84 249.05 15.69" fill="#8f6fc9"/><path d="M42.47,190.58a.5.5,0,0,1-.16.69c-.44.27-.88.52-1.33.76a.5.5,0,0,1-.67-.21.49.49,0,0,1,.2-.67c.43-.23.85-.48,1.27-.74A.5.5,0,0,1,42.47,190.58Zm-4,2a.2.2,0,0,1,0,.08.5.5,0,0,1-.28.65c-.48.18-1,.36-1.44.51a.49.49,0,1,1-.31-.94c.46-.16.92-.32,1.38-.5A.49.49,0,0,1,38.45,192.59Zm-4.31,1.27a.87.87,0,0,1,.07.17.51.51,0,0,1-.4.59c-.5.1-1,.18-1.5.25a.49.49,0,0,1-.57-.42.51.51,0,0,1,.43-.57c.48-.06,1-.15,1.45-.24A.49.49,0,0,1,34.14,193.86Zm-4.47.5a.46.46,0,0,1,.08.25.5.5,0,0,1-.49.51c-.51,0-1,0-1.53,0a.49.49,0,0,1-.48-.51.5.5,0,0,1,.52-.49c.49,0,1,0,1.47,0A.52.52,0,0,1,29.67,194.36Zm-4.48-.29a.5.5,0,0,1,.07.34.51.51,0,0,1-.57.42c-.51-.08-1-.17-1.51-.28a.49.49,0,0,1-.38-.59.51.51,0,0,1,.59-.39c.48.11,1,.19,1.45.27A.5.5,0,0,1,25.19,194.07ZM4,163.16a.48.48,0,0,1,.06.37c-.1.48-.19,1-.27,1.45a.5.5,0,0,1-1-.16c.08-.5.18-1,.29-1.5a.5.5,0,0,1,.91-.16ZM20.82,193a.5.5,0,0,1-.58.74c-.49-.16-1-.34-1.44-.53a.5.5,0,0,1,.38-.93q.67.28,1.38.51A.54.54,0,0,1,20.82,193ZM3.44,167.62a.54.54,0,0,1,.08.28c0,.49,0,1,0,1.47a.5.5,0,0,1-.5.51.49.49,0,0,1-.5-.49c0-.51,0-1,0-1.53a.5.5,0,0,1,.52-.48A.49.49,0,0,1,3.44,167.62ZM16.71,191.2a.5.5,0,0,1,0,.5.51.51,0,0,1-.68.2c-.44-.25-.88-.5-1.32-.78a.5.5,0,0,1,.54-.84c.41.26.83.51,1.26.74A.47.47,0,0,1,16.71,191.2ZM3.64,172.11a.43.43,0,0,1,.07.2c.06.48.14,1,.24,1.45A.5.5,0,0,1,3,174c-.09-.5-.17-1-.24-1.51a.49.49,0,0,1,.43-.56A.5.5,0,0,1,3.64,172.11ZM13,188.7a.5.5,0,0,1-.73.65q-.6-.48-1.17-1a.5.5,0,0,1,.68-.74c.36.33.73.65,1.11.95A.33.33,0,0,1,13,188.7ZM4.62,176.5a.37.37,0,0,1,0,.11c.15.46.31.92.49,1.38a.5.5,0,0,1-.29.65.5.5,0,0,1-.64-.29c-.19-.47-.36-1-.51-1.44a.5.5,0,0,1,.9-.41Zm5.12,9.08a.5.5,0,0,1-.1.64.49.49,0,0,1-.7-.05c-.34-.38-.66-.77-1-1.18a.5.5,0,1,1,.79-.61q.45.59.93,1.14Zm-3.38-4.94,0,0c.22.43.46.86.72,1.28a.51.51,0,0,1-.17.69.5.5,0,0,1-.69-.17h0c-.26-.44-.51-.88-.75-1.33a.5.5,0,0,1,.87-.5Z" fill="#8f6fc9"/><polygon points="6.26 154.23 0 162.41 7.41 164.46 6.26 154.23" fill="#8f6fc9"/><path d="M172.4,16.87a1.7,1.7,0,1,1-1.7-1.7A1.7,1.7,0,0,1,172.4,16.87Z" fill="#8f6fc9"/><circle cx="177.72" cy="16.87" r="1.7" fill="#8f6fc9"/><path d="M186.44,16.87a1.7,1.7,0,1,1-1.7-1.7A1.7,1.7,0,0,1,186.44,16.87Z" fill="#8f6fc9"/><circle cx="191.77" cy="16.87" r="1.7" fill="#8f6fc9"/><circle cx="213.14" cy="7.42" r="1.7" fill="#80a880"/><circle cx="220.17" cy="7.42" r="1.7" fill="#80a880"/><path d="M228.89,7.42a1.7,1.7,0,1,1-1.7-1.7A1.7,1.7,0,0,1,228.89,7.42Z" fill="#80a880"/><circle cx="234.21" cy="7.42" r="1.7" fill="#80a880"/><path d="M28.74,169.25a1.7,1.7,0,1,1-1.7-1.7A1.7,1.7,0,0,1,28.74,169.25Z" fill="#8f6fc9"/><circle cx="34.06" cy="169.25" r="1.7" fill="#8f6fc9"/><circle cx="41.09" cy="169.25" r="1.7" fill="#8f6fc9"/><path d="M49.81,169.25a1.7,1.7,0,1,1-1.7-1.7A1.7,1.7,0,0,1,49.81,169.25Z" fill="#8f6fc9"/><path d="M6.23,115.91a1.7,1.7,0,1,1-1.7-1.71A1.7,1.7,0,0,1,6.23,115.91Z" fill="#80a880"/><path d="M13.25,115.91a1.7,1.7,0,1,1-1.7-1.71A1.7,1.7,0,0,1,13.25,115.91Z" fill="#80a880"/><circle cx="18.57" cy="115.91" r="1.7" fill="#80a880"/><path d="M27.3,115.91a1.7,1.7,0,1,1-1.7-1.71A1.7,1.7,0,0,1,27.3,115.91Z" fill="#80a880"/><path d="M300.77,141.59a1.71,1.71,0,1,1-1.7-1.7A1.7,1.7,0,0,1,300.77,141.59Z" fill="#80a880"/><path d="M307.79,141.59a1.7,1.7,0,1,1-1.7-1.7A1.7,1.7,0,0,1,307.79,141.59Z" fill="#80a880"/><path d="M314.81,141.59a1.7,1.7,0,1,1-1.7-1.7A1.7,1.7,0,0,1,314.81,141.59Z" fill="#80a880"/><path d="M321.83,141.59a1.7,1.7,0,1,1-1.7-1.7A1.7,1.7,0,0,1,321.83,141.59Z" fill="#80a880"/><path d="M294.82,132.13a1.7,1.7,0,1,1-1.7-1.7A1.7,1.7,0,0,1,294.82,132.13Z" fill="#ffefb0"/><path d="M301.84,132.13a1.7,1.7,0,1,1-1.7-1.7A1.7,1.7,0,0,1,301.84,132.13Z" fill="#ffefb0"/><path d="M308.86,132.13a1.7,1.7,0,1,1-1.7-1.7A1.7,1.7,0,0,1,308.86,132.13Z" fill="#ffefb0"/><path d="M315.89,132.13a1.71,1.71,0,1,1-1.71-1.7A1.71,1.71,0,0,1,315.89,132.13Z" fill="#ffefb0"/><path d="M349.5,98.66a5.29,5.29,0,0,0,.11-1.06,5.56,5.56,0,0,0-8.2-4.89,9.49,9.49,0,0,0-17.18,5.58v.07a10,10,0,0,0-8.86,9.93h0a10,10,0,0,0,10,10h21.47a10,10,0,0,0,10-10h0A10,10,0,0,0,349.5,98.66Z" fill="#ffefb0" opacity="0.87"/><path d="M324.17,107.34a1.41,1.41,0,0,0,1.57-1.14h1v9.08h-1.43v-6.93h-1.1Z" fill="#8f6fc9"/><path d="M328.31,108.38a2.17,2.17,0,1,1,4.33,0v4.72a2.17,2.17,0,1,1-4.33,0Zm1.42,4.81c0,.65.29.89.74.89s.74-.24.74-.89v-4.9c0-.65-.29-.9-.74-.9s-.74.25-.74.9Z" fill="#8f6fc9"/><path d="M334.44,107.34A1.41,1.41,0,0,0,336,106.2h1v9.08h-1.43v-6.93h-1.1Z" fill="#8f6fc9"/><path d="M338.57,108.38a2.17,2.17,0,1,1,4.33,0v4.72a2.17,2.17,0,1,1-4.33,0Zm1.43,4.81c0,.65.28.89.74.89s.74-.24.74-.89v-4.9c0-.65-.29-.9-.74-.9s-.74.25-.74.9Z" fill="#8f6fc9"/><path d="M343.7,108.38a2.17,2.17,0,1,1,4.33,0v4.72a2.17,2.17,0,1,1-4.33,0Zm1.43,4.81c0,.65.29.89.74.89s.74-.24.74-.89v-4.9c0-.65-.29-.9-.74-.9s-.74.25-.74.9Z" fill="#8f6fc9"/><path d="M328.8,97.53a2.17,2.17,0,1,1,4.34,0v4.72a2.17,2.17,0,1,1-4.34,0Zm1.43,4.81c0,.65.29.9.74.9s.74-.25.74-.9v-4.9c0-.64-.29-.89-.74-.89s-.74.25-.74.89Z" fill="#8f6fc9"/><path d="M334.94,96.5a1.4,1.4,0,0,0,1.56-1.14h1v9.07H336V97.51h-1.1Z" fill="#8f6fc9"/><path d="M340.07,96.5a1.41,1.41,0,0,0,1.57-1.14h1v9.07h-1.43V97.51h-1.1Z" fill="#8f6fc9"/><path d="M129.29,53.17A1.41,1.41,0,0,0,130.86,52h1V61.1h-1.43V54.18h-1.1Z" fill="#8f6fc9"/><path d="M133.43,54.21a2.17,2.17,0,1,1,4.33,0v4.72a2.17,2.17,0,1,1-4.33,0ZM134.85,59c0,.64.29.89.74.89s.74-.25.74-.89v-4.9c0-.65-.28-.9-.74-.9s-.74.25-.74.9Z" fill="#8f6fc9"/><path d="M139.56,53.17A1.41,1.41,0,0,0,141.13,52h1V61.1h-1.43V54.18h-1.1Z" fill="#8f6fc9"/><path d="M143.69,54.21a2.17,2.17,0,1,1,4.33,0v4.72a2.17,2.17,0,1,1-4.33,0ZM145.12,59c0,.64.28.89.74.89s.74-.25.74-.89v-4.9c0-.65-.29-.9-.74-.9s-.74.25-.74.9Z" fill="#8f6fc9"/><path d="M148.83,54.21a2.17,2.17,0,1,1,4.33,0v4.72a2.17,2.17,0,1,1-4.33,0ZM150.25,59c0,.64.29.89.74.89s.74-.25.74-.89v-4.9c0-.65-.29-.9-.74-.9s-.74.25-.74.9Z" fill="#8f6fc9"/><path d="M133.93,43.36a2.17,2.17,0,1,1,4.33,0v4.72a2.17,2.17,0,1,1-4.33,0Zm1.42,4.81c0,.65.29.9.74.9s.74-.25.74-.9v-4.9c0-.65-.29-.89-.74-.89s-.74.24-.74.89Z" fill="#8f6fc9"/><path d="M140.06,42.32a1.41,1.41,0,0,0,1.57-1.14h1v9.08h-1.43V43.33h-1.1Z" fill="#8f6fc9"/><path d="M145.19,42.32a1.41,1.41,0,0,0,1.57-1.14h1v9.08h-1.43V43.33h-1.1Z" fill="#8f6fc9"/><path d="M313.48,96.89a10.93,10.93,0,0,0-4.05-8.49.75.75,0,0,0-.18-.13,10.87,10.87,0,0,0-13.4,0,.62.62,0,0,0-.19.14,10.9,10.9,0,0,0,0,17l.15.12a10.86,10.86,0,0,0,13.43,0,.75.75,0,0,0,.18-.13A10.91,10.91,0,0,0,313.48,96.89Zm-4.66,6.88a10.88,10.88,0,0,0-1.51-.89,18.36,18.36,0,0,0,.89-5.18h3.63A9.26,9.26,0,0,1,308.82,103.77Zm-8.94,0a9.53,9.53,0,0,1,2.67-.39,9.4,9.4,0,0,1,2.66.39c-.76,1.54-1.74,2.44-2.66,2.44S300.65,105.32,299.88,103.78Zm-.84,1.74a8.91,8.91,0,0,1-1.41-.72,8.2,8.2,0,0,1,.76-.43A8.41,8.41,0,0,0,299,105.52Zm3.51-18c.92,0,1.9.89,2.66,2.43a9.4,9.4,0,0,1-2.66.39,9.53,9.53,0,0,1-2.67-.39C300.65,88.46,301.62,87.57,302.55,87.57Zm-4.16,1.84a8.2,8.2,0,0,1-.76-.43,8.91,8.91,0,0,1,1.41-.72A8.41,8.41,0,0,0,298.39,89.41Zm7.67-1.15a9.36,9.36,0,0,1,1.41.72,8.2,8.2,0,0,1-.76.43A9.61,9.61,0,0,0,306.06,88.26ZM302.55,92a11,11,0,0,0,3.27-.51,17.23,17.23,0,0,1,.77,4.6h-8.08a17.23,17.23,0,0,1,.77-4.6A10.9,10.9,0,0,0,302.55,92Zm4,5.7a17.22,17.22,0,0,1-.77,4.59,10.74,10.74,0,0,0-6.54,0,17.22,17.22,0,0,1-.77-4.59Zm.12,6.67a8.2,8.2,0,0,1,.76.43,9.36,9.36,0,0,1-1.41.72A9.61,9.61,0,0,0,306.71,104.37Zm5.12-8.28H308.2a18.37,18.37,0,0,0-.89-5.19,10.88,10.88,0,0,0,1.51-.89A9.26,9.26,0,0,1,311.83,96.09ZM296.27,90a11.49,11.49,0,0,0,1.51.89,18.74,18.74,0,0,0-.88,5.19h-3.64A9.35,9.35,0,0,1,296.27,90Zm-3,7.69h3.64a18.73,18.73,0,0,0,.88,5.18,11.49,11.49,0,0,0-1.51.89A9.35,9.35,0,0,1,293.26,97.7Z" fill="#8f6fc9"/><path d="M352,162.08a5.39,5.39,0,0,0,.11-1.07,5.56,5.56,0,0,0-8.2-4.88,9.49,9.49,0,0,0-17.18,5.58s0,0,0,.07a10,10,0,0,0-8.87,9.93h0a10,10,0,0,0,10,10h21.47a10,10,0,0,0,10-10h0A10,10,0,0,0,352,162.08Z" fill="#ffefb0" opacity="0.87"/><path d="M347.93,168.15a9.3,9.3,0,0,0-3.46-7.24.57.57,0,0,0-.15-.12,9.27,9.27,0,0,0-11.43,0,.61.61,0,0,0-.16.12,9.31,9.31,0,0,0,0,14.48.6.6,0,0,0,.13.09,9.27,9.27,0,0,0,11.45,0,.57.57,0,0,0,.15-.12A9.28,9.28,0,0,0,347.93,168.15ZM344,174a9.28,9.28,0,0,0-1.29-.76,15.81,15.81,0,0,0,.75-4.42h3.1A8,8,0,0,1,344,174Zm-7.63,0a8,8,0,0,1,4.55,0c-.66,1.31-1.49,2.08-2.28,2.08S337,175.33,336.33,174Zm-.72,1.49a8.5,8.5,0,0,1-1.2-.62c.21-.13.43-.25.65-.36A8.32,8.32,0,0,0,335.61,175.51Zm3-15.32c.79,0,1.62.77,2.28,2.08a8,8,0,0,1-4.55,0C337,161,337.81,160.19,338.6,160.19Zm-3.54,1.57c-.22-.11-.44-.23-.65-.36a7.56,7.56,0,0,1,1.2-.62A8.32,8.32,0,0,0,335.06,161.76Zm6.54-1a7.56,7.56,0,0,1,1.2.62c-.21.13-.43.25-.65.36A8.32,8.32,0,0,0,341.6,160.78Zm-3,3.2a9.4,9.4,0,0,0,2.79-.44,14.62,14.62,0,0,1,.66,3.92h-6.89a14.62,14.62,0,0,1,.66-3.92A9.29,9.29,0,0,0,338.6,164Zm3.45,4.85a14.62,14.62,0,0,1-.66,3.92,9,9,0,0,0-5.57,0,14.62,14.62,0,0,1-.66-3.92Zm.1,5.7c.22.11.44.23.65.36a7.56,7.56,0,0,1-1.2.62A8.32,8.32,0,0,0,342.15,174.53Zm4.37-7.07h-3.1a15.81,15.81,0,0,0-.75-4.42,9.28,9.28,0,0,0,1.29-.76A8,8,0,0,1,346.52,167.46Zm-13.27-5.18a9.28,9.28,0,0,0,1.29.76,15.81,15.81,0,0,0-.75,4.42h-3.1A7.91,7.91,0,0,1,333.25,162.28Zm-2.56,6.55h3.1a15.81,15.81,0,0,0,.75,4.42,9.28,9.28,0,0,0-1.29.76A7.91,7.91,0,0,1,330.69,168.83Z" fill="#8f6fc9"/><path d="M50.14,60.39H63.25a6.11,6.11,0,0,0,6.11-6.11h0a6.1,6.1,0,0,0-6.11-6.1H50.14a6.1,6.1,0,0,0-6.1,6.1h0A6.11,6.11,0,0,0,50.14,60.39Z" fill="#ffefb0"/><circle cx="58.15" cy="48.18" r="5.8" fill="#ffefb0"/><circle cx="51.84" cy="47.75" r="3.39" fill="#ffefb0"/><path d="M61.79,51.14H51.24a1,1,0,0,1-1-1h0a1,1,0,0,1,1-1H61.79a1,1,0,0,1,1,1h0A1,1,0,0,1,61.79,51.14Z" fill="#8f6fc9"/><path d="M63.84,54H51.24a1,1,0,0,1-1-1h0a1,1,0,0,1,1-1h12.6a1,1,0,0,1,1,1h0A1,1,0,0,1,63.84,54Z" fill="#8f6fc9"/><path d="M63.84,56.81H51.24a1,1,0,0,1-1-1h0a1,1,0,0,1,1-1h12.6a1,1,0,0,1,1,1h0A1,1,0,0,1,63.84,56.81Z" fill="#8f6fc9"/><path d="M269.5,279.68V254.92a5.85,5.85,0,0,0-5.84-5.84h-.07a5.85,5.85,0,0,0-5.85,5.84v1.49a5.83,5.83,0,0,1-5.84,5.84h0a5.83,5.83,0,0,1-5.84-5.84v-20a6.21,6.21,0,0,0-6.2-6.2h0a6.2,6.2,0,0,0-6.19,6.2v41.87a6.56,6.56,0,0,1-6.56,6.55h0a6.55,6.55,0,0,1-6.55-6.55V242a5.84,5.84,0,0,0-5.84-5.84h-10.5" fill="none" stroke="#fff" stroke-miterlimit="10"/><path d="M264.85,267.2a7.07,7.07,0,0,0-7.07,6.94l-.34,19.56A10.1,10.1,0,0,0,267.54,304h2V267.2Z" fill="#fff"/><path d="M281.22,274.14a7.08,7.08,0,0,0-7.07-6.94H269.5V304h2a10.1,10.1,0,0,0,10.1-10.28Z" fill="#d5e6f0"/><path d="M269.4,284.1h0a1.88,1.88,0,0,1-1.87-1.88v-6a1.88,1.88,0,0,1,1.87-1.88h0a1.88,1.88,0,0,1,1.88,1.88v6A1.88,1.88,0,0,1,269.4,284.1Z" fill="#8fb4c9"/><polygon points="161.18 217.15 159.89 234.02 204.22 234.02 202.94 217.15 161.18 217.15" fill="#f1f1f1"/><polygon points="202.24 207.88 161.88 207.88 161.18 217.15 202.94 217.15 202.24 207.88" fill="gray"/><path d="M151.74,232.53h60.63a3,3,0,0,1,3,3v4.26a0,0,0,0,1,0,0H148.73a0,0,0,0,1,0,0v-4.26A3,3,0,0,1,151.74,232.53Z" fill="#a4cde7"/><path d="M280.12,68.94H84a6,6,0,0,0-6,6V192.66H286.1V74.92A6,6,0,0,0,280.12,68.94Z" fill="#a4cde7"/><path d="M181.23,212.84h98.89a6,6,0,0,0,6-6v-14.2H201.41Z" fill="#e5e5e5"/><path d="M78,192.66v14.2a6,6,0,0,0,6,6h97.23l20.18-20.18Z" fill="#f1f1f1"/><rect x="85.3" y="76.22" width="192.2" height="108.17" fill="#2c528f"/><path d="M125.64,90.29H96.14a2.08,2.08,0,0,1-2.08-2.08h0a2.08,2.08,0,0,1,2.08-2.08h29.5a2.08,2.08,0,0,1,2.08,2.08h0A2.08,2.08,0,0,1,125.64,90.29Z" fill="#c2ffc2"/><path d="M200.31,90.29h-29.5a2.09,2.09,0,0,1-2.09-2.08h0a2.09,2.09,0,0,1,2.09-2.08h29.5a2.08,2.08,0,0,1,2.08,2.08h0A2.08,2.08,0,0,1,200.31,90.29Z" fill="#c2ffc2"/><path d="M214.81,90.29H208A2.09,2.09,0,0,1,206,88.21h0A2.09,2.09,0,0,1,208,86.13h6.77a2.08,2.08,0,0,1,2.08,2.08h0A2.08,2.08,0,0,1,214.81,90.29Z" fill="#fff"/><path d="M162.82,90.29H152.14a2.08,2.08,0,0,1-2.08-2.08h0a2.08,2.08,0,0,1,2.08-2.08h10.68a2.08,2.08,0,0,1,2.08,2.08h0A2.08,2.08,0,0,1,162.82,90.29Z" fill="#fe168d"/><path d="M115.87,98H96.14a2.08,2.08,0,0,1-2.08-2.08h0a2.09,2.09,0,0,1,2.08-2.09h19.73A2.09,2.09,0,0,1,118,95.88h0A2.08,2.08,0,0,1,115.87,98Z" fill="aqua"/><path d="M168.86,98H149.13a2.08,2.08,0,0,1-2.08-2.08h0a2.09,2.09,0,0,1,2.08-2.09h19.73a2.09,2.09,0,0,1,2.08,2.09h0A2.08,2.08,0,0,1,168.86,98Z" fill="aqua"/><path d="M179.15,98h-3.6a2.08,2.08,0,0,1-2.08-2.08h0a2.09,2.09,0,0,1,2.08-2.09h3.6a2.09,2.09,0,0,1,2.08,2.09h0A2.08,2.08,0,0,1,179.15,98Z" fill="#fff"/><path d="M129.12,98h-6.37a2.08,2.08,0,0,1-2.08-2.08h0a2.09,2.09,0,0,1,2.08-2.09h6.37a2.1,2.1,0,0,1,2.09,2.09h0A2.09,2.09,0,0,1,129.12,98Z" fill="aqua"/><path d="M142.25,98h-6.37a2.08,2.08,0,0,1-2.08-2.08h0a2.09,2.09,0,0,1,2.08-2.09h6.37a2.09,2.09,0,0,1,2.08,2.09h0A2.08,2.08,0,0,1,142.25,98Z" fill="aqua"/><path d="M115.87,105.63H96.14a2.09,2.09,0,0,1-2.08-2.09h0a2.08,2.08,0,0,1,2.08-2.08h19.73a2.08,2.08,0,0,1,2.08,2.08h0A2.09,2.09,0,0,1,115.87,105.63Z" fill="#fff"/><path d="M129.12,105.63h-6.37a2.09,2.09,0,0,1-2.08-2.09h0a2.08,2.08,0,0,1,2.08-2.08h6.37a2.09,2.09,0,0,1,2.09,2.08h0A2.1,2.1,0,0,1,129.12,105.63Z" fill="#fff"/><path d="M142.25,105.63h-6.37a2.09,2.09,0,0,1-2.08-2.09h0a2.08,2.08,0,0,1,2.08-2.08h6.37a2.08,2.08,0,0,1,2.08,2.08h0A2.09,2.09,0,0,1,142.25,105.63Z" fill="#fff"/><path d="M177.72,105.63h-2a2.09,2.09,0,0,1-2.09-2.09h0a2.08,2.08,0,0,1,2.09-2.08h2a2.08,2.08,0,0,1,2.08,2.08h0A2.09,2.09,0,0,1,177.72,105.63Z" fill="#fe168d"/><path d="M186.57,105.63h-2a2.09,2.09,0,0,1-2.08-2.09h0a2.08,2.08,0,0,1,2.08-2.08h2a2.09,2.09,0,0,1,2.09,2.08h0A2.1,2.1,0,0,1,186.57,105.63Z" fill="#fe168d"/><path d="M195.43,105.63h-2a2.09,2.09,0,0,1-2.08-2.09h0a2.08,2.08,0,0,1,2.08-2.08h2a2.08,2.08,0,0,1,2.08,2.08h0A2.09,2.09,0,0,1,195.43,105.63Z" fill="#fff"/><path d="M204.29,105.63h-2a2.09,2.09,0,0,1-2.08-2.09h0a2.08,2.08,0,0,1,2.08-2.08h2a2.08,2.08,0,0,1,2.08,2.08h0A2.09,2.09,0,0,1,204.29,105.63Z" fill="#fff"/><path d="M106.59,113.29H96.14a2.08,2.08,0,0,1-2.08-2.08h0a2.08,2.08,0,0,1,2.08-2.08h10.45a2.08,2.08,0,0,1,2.08,2.08h0A2.08,2.08,0,0,1,106.59,113.29Z" fill="#fff"/><path d="M139,113.29H128.55a2.09,2.09,0,0,1-2.09-2.08h0a2.09,2.09,0,0,1,2.09-2.08H139a2.08,2.08,0,0,1,2.08,2.08h0A2.08,2.08,0,0,1,139,113.29Z" fill="#fe168d"/><path d="M145.28,113.29h-.58a2.08,2.08,0,0,1-2.08-2.08h0a2.08,2.08,0,0,1,2.08-2.08h.58a2.09,2.09,0,0,1,2.09,2.08h0A2.09,2.09,0,0,1,145.28,113.29Z" fill="#fff"/><path d="M114.69,113.29h-2.27a2.09,2.09,0,0,1-2.09-2.08h0a2.09,2.09,0,0,1,2.09-2.08h2.27a2.08,2.08,0,0,1,2.08,2.08h0A2.08,2.08,0,0,1,114.69,113.29Z" fill="#fff"/><path d="M122.72,113.29h-2.28a2.08,2.08,0,0,1-2.08-2.08h0a2.08,2.08,0,0,1,2.08-2.08h2.28a2.08,2.08,0,0,1,2.08,2.08h0A2.08,2.08,0,0,1,122.72,113.29Z" fill="#fff"/><path d="M120.33,121H96.14a2.08,2.08,0,0,1-2.08-2.08h0a2.09,2.09,0,0,1,2.08-2.09h24.19a2.09,2.09,0,0,1,2.08,2.09h0A2.08,2.08,0,0,1,120.33,121Z" fill="aqua"/><path d="M163.91,121H159a2.08,2.08,0,0,1-2.08-2.08h0a2.09,2.09,0,0,1,2.08-2.09h4.88a2.09,2.09,0,0,1,2.08,2.09h0A2.08,2.08,0,0,1,163.91,121Z" fill="#fff"/><path d="M173.64,121h-2.46a2.08,2.08,0,0,1-2.08-2.08h0a2.09,2.09,0,0,1,2.08-2.09h2.46a2.09,2.09,0,0,1,2.08,2.09h0A2.08,2.08,0,0,1,173.64,121Z" fill="#fff"/><path d="M183.29,121h-2.46a2.08,2.08,0,0,1-2.08-2.08h0a2.09,2.09,0,0,1,2.08-2.09h2.46a2.09,2.09,0,0,1,2.08,2.09h0A2.08,2.08,0,0,1,183.29,121Z" fill="#fff"/><path d="M136.06,121h-8.33a2.09,2.09,0,0,1-2.09-2.08h0a2.1,2.1,0,0,1,2.09-2.09h8.33a2.09,2.09,0,0,1,2.08,2.09h0A2.08,2.08,0,0,1,136.06,121Z" fill="aqua"/><path d="M151.64,121h-8.33a2.09,2.09,0,0,1-2.09-2.08h0a2.1,2.1,0,0,1,2.09-2.09h8.33a2.1,2.1,0,0,1,2.09,2.09h0A2.09,2.09,0,0,1,151.64,121Z" fill="aqua"/><path d="M123.77,128.63H96.14a2.09,2.09,0,0,1-2.08-2.09h0a2.08,2.08,0,0,1,2.08-2.08h27.63a2.08,2.08,0,0,1,2.08,2.08h0A2.09,2.09,0,0,1,123.77,128.63Z" fill="#fff"/><path d="M194.28,128.63H166.65a2.09,2.09,0,0,1-2.08-2.09h0a2.08,2.08,0,0,1,2.08-2.08h27.63a2.08,2.08,0,0,1,2.08,2.08h0A2.09,2.09,0,0,1,194.28,128.63Z" fill="#fff"/><path d="M208,128.63h-6.16a2.09,2.09,0,0,1-2.08-2.09h0a2.08,2.08,0,0,1,2.08-2.08H208a2.08,2.08,0,0,1,2.09,2.08h0A2.09,2.09,0,0,1,208,128.63Z" fill="#fff"/><path d="M108.65,136.29H96.14a2.08,2.08,0,0,1-2.08-2.08h0a2.08,2.08,0,0,1,2.08-2.08h12.51a2.08,2.08,0,0,1,2.08,2.08h0A2.08,2.08,0,0,1,108.65,136.29Z" fill="#fff"/><path d="M145.63,136.29H133.12a2.08,2.08,0,0,1-2.08-2.08h0a2.08,2.08,0,0,1,2.08-2.08h12.51a2.08,2.08,0,0,1,2.08,2.08h0A2.08,2.08,0,0,1,145.63,136.29Z" fill="#fe168d"/><path d="M152.81,136.29h-1.25a2.09,2.09,0,0,1-2.09-2.08h0a2.09,2.09,0,0,1,2.09-2.08h1.25a2.08,2.08,0,0,1,2.08,2.08h0A2.08,2.08,0,0,1,152.81,136.29Z" fill="#fe168d"/><path d="M117.9,136.29h-3.19a2.08,2.08,0,0,1-2.08-2.08h0a2.08,2.08,0,0,1,2.08-2.08h3.19a2.08,2.08,0,0,1,2.08,2.08h0A2.08,2.08,0,0,1,117.9,136.29Z" fill="#fff"/><path d="M127.06,136.29h-3.18a2.08,2.08,0,0,1-2.09-2.08h0a2.08,2.08,0,0,1,2.09-2.08h3.18a2.08,2.08,0,0,1,2.08,2.08h0A2.08,2.08,0,0,1,127.06,136.29Z" fill="#c2ffc2"/><path d="M111.39,144H96.14a2.08,2.08,0,0,1-2.08-2.08h0a2.09,2.09,0,0,1,2.08-2.09h15.25a2.1,2.1,0,0,1,2.09,2.09h0A2.09,2.09,0,0,1,111.39,144Z" fill="#fff"/><path d="M154.46,144H139.2a2.08,2.08,0,0,1-2.08-2.08h0a2.09,2.09,0,0,1,2.08-2.09h15.26a2.09,2.09,0,0,1,2.08,2.09h0A2.08,2.08,0,0,1,154.46,144Z" fill="aqua"/><path d="M162.82,144h-2.14a2.09,2.09,0,0,1-2.09-2.08h0a2.1,2.1,0,0,1,2.09-2.09h2.14a2.09,2.09,0,0,1,2.08,2.09h0A2.08,2.08,0,0,1,162.82,144Z" fill="aqua"/><path d="M122.16,144h-4.39a2.08,2.08,0,0,1-2.08-2.08h0a2.09,2.09,0,0,1,2.08-2.09h4.39a2.1,2.1,0,0,1,2.09,2.09h0A2.09,2.09,0,0,1,122.16,144Z" fill="aqua"/><path d="M132.83,144h-4.39a2.08,2.08,0,0,1-2.08-2.08h0a2.09,2.09,0,0,1,2.08-2.09h4.39a2.1,2.1,0,0,1,2.09,2.09h0A2.09,2.09,0,0,1,132.83,144Z" fill="aqua"/><path d="M115.87,159.29H96.14a2.08,2.08,0,0,1-2.08-2.08h0a2.08,2.08,0,0,1,2.08-2.08h19.73a2.08,2.08,0,0,1,2.08,2.08h0A2.08,2.08,0,0,1,115.87,159.29Z" fill="#c2ffc2"/><path d="M156.91,159.29h-.74a2.09,2.09,0,0,1-2.09-2.08h0a2.09,2.09,0,0,1,2.09-2.08h.74a2.08,2.08,0,0,1,2.08,2.08h0A2.08,2.08,0,0,1,156.91,159.29Z" fill="#fe168d"/><path d="M144.32,90.29H133.64a2.08,2.08,0,0,1-2.08-2.08h0a2.08,2.08,0,0,1,2.08-2.08h10.68a2.08,2.08,0,0,1,2.08,2.08h0A2.08,2.08,0,0,1,144.32,90.29Z" fill="#ffe068"/><path d="M151.14,105.63h-2a2.09,2.09,0,0,1-2.08-2.09h0a2.08,2.08,0,0,1,2.08-2.08h2a2.08,2.08,0,0,1,2.08,2.08h0A2.09,2.09,0,0,1,151.14,105.63Z" fill="#ffe068"/><path d="M160,105.63h-2a2.09,2.09,0,0,1-2.08-2.09h0a2.08,2.08,0,0,1,2.08-2.08h2a2.08,2.08,0,0,1,2.08,2.08h0A2.09,2.09,0,0,1,160,105.63Z" fill="#ffe068"/><path d="M168.86,105.63h-2a2.1,2.1,0,0,1-2.09-2.09h0a2.09,2.09,0,0,1,2.09-2.08h2a2.08,2.08,0,0,1,2.08,2.08h0A2.09,2.09,0,0,1,168.86,105.63Z" fill="#ffe068"/><path d="M141.41,128.63h-9.85a2.09,2.09,0,0,1-2.09-2.09h0a2.08,2.08,0,0,1,2.09-2.08h9.85a2.08,2.08,0,0,1,2.08,2.08h0A2.09,2.09,0,0,1,141.41,128.63Z" fill="#ffe068"/><path d="M158.88,128.63H149a2.1,2.1,0,0,1-2.09-2.09h0a2.09,2.09,0,0,1,2.09-2.08h9.85a2.08,2.08,0,0,1,2.08,2.08h0A2.09,2.09,0,0,1,158.88,128.63Z" fill="#ffe068"/><path d="M150.4,159.29h-11a2.09,2.09,0,0,1-2.09-2.08h0a2.09,2.09,0,0,1,2.09-2.08h11a2.08,2.08,0,0,1,2.08,2.08h0A2.08,2.08,0,0,1,150.4,159.29Z" fill="#ffe068"/><path d="M125.25,159.29h-2.5a2.08,2.08,0,0,1-2.08-2.08h0a2.08,2.08,0,0,1,2.08-2.08h2.5a2.09,2.09,0,0,1,2.09,2.08h0A2.09,2.09,0,0,1,125.25,159.29Z" fill="#ffe068"/><path d="M133.56,159.29h-2.5a2.08,2.08,0,0,1-2.08-2.08h0a2.08,2.08,0,0,1,2.08-2.08h2.5a2.09,2.09,0,0,1,2.09,2.08h0A2.09,2.09,0,0,1,133.56,159.29Z" fill="#ffe068"/><path d="M115.87,167H96.14a2.08,2.08,0,0,1-2.08-2.08h0a2.09,2.09,0,0,1,2.08-2.09h19.73a2.09,2.09,0,0,1,2.08,2.09h0A2.08,2.08,0,0,1,115.87,167Z" fill="aqua"/><path d="M168.86,167H149.13a2.08,2.08,0,0,1-2.08-2.08h0a2.09,2.09,0,0,1,2.08-2.09h19.73a2.09,2.09,0,0,1,2.08,2.09h0A2.08,2.08,0,0,1,168.86,167Z" fill="aqua"/><path d="M179.15,167h-3.6a2.08,2.08,0,0,1-2.08-2.08h0a2.09,2.09,0,0,1,2.08-2.09h3.6a2.09,2.09,0,0,1,2.08,2.09h0A2.08,2.08,0,0,1,179.15,167Z" fill="aqua"/><path d="M129.12,167h-6.37a2.08,2.08,0,0,1-2.08-2.08h0a2.09,2.09,0,0,1,2.08-2.09h6.37a2.1,2.1,0,0,1,2.09,2.09h0A2.09,2.09,0,0,1,129.12,167Z" fill="#fe168d"/><path d="M142.25,167h-6.37a2.08,2.08,0,0,1-2.08-2.08h0a2.09,2.09,0,0,1,2.08-2.09h6.37a2.09,2.09,0,0,1,2.08,2.09h0A2.08,2.08,0,0,1,142.25,167Z" fill="#fe168d"/><polygon points="176.57 76.22 85.3 167.48 85.3 141.22 150.29 76.22 176.57 76.22" fill="#fff" opacity="0.2"/><polygon points="261.48 76.22 153.32 184.39 103.64 184.39 211.82 76.22 261.48 76.22" fill="#fff" opacity="0.2"/><path d="M305,205.54c0,11.6,4.16,19.1,9.3,19.1v-42S305,193.94,305,205.54Z" fill="#c2ffc2"/><path d="M314.25,182.63v42c5.13,0,9.3-7.5,9.3-19.1S314.25,182.63,314.25,182.63Z" fill="#80a880"/><path d="M322.83,205.09c-8.2,8.21-10.56,16.45-6.93,20.08l29.71-29.71S331,196.89,322.83,205.09Z" fill="#c2ffc2"/><path d="M345.61,195.46,315.9,225.17c3.64,3.63,11.88,1.28,20.08-6.93S345.61,195.46,345.61,195.46Z" fill="#80a880"/><path d="M305.66,205.09c8.21,8.21,10.56,16.45,6.93,20.08l-29.7-29.71S297.46,196.89,305.66,205.09Z" fill="#c2ffc2"/><path d="M282.89,195.46l29.7,29.71c-3.63,3.63-11.87,1.28-20.07-6.93S282.89,195.46,282.89,195.46Z" fill="#80a880"/><path d="M314.25,222.24v36.22h16.91a2.56,2.56,0,0,0,2.56-2.56V222.24Z" fill="#8fb4c9"/><path d="M314.25,222.24H294.77V255.9a2.56,2.56,0,0,0,2.56,2.56h16.92Z" fill="#a4cde7"/><rect x="314.25" y="258.46" width="15.13" height="4.05" fill="#528aa8"/><rect x="299.12" y="258.46" width="15.13" height="4.05" fill="#79a3ba"/></g></g></svg>